<?xml version="1.0" encoding="utf-8"?>
<!-- Generator: Adobe Illustrator 16.0.0, SVG Export Plug-In . SVG Version: 6.00 Build 0)  -->
<!DOCTYPE svg PUBLIC "-//W3C//DTD SVG 1.1//EN" "http://www.w3.org/Graphics/SVG/1.1/DTD/svg11.dtd">
<svg version="1.1" id="Calque_1" xmlns="http://www.w3.org/2000/svg" xmlns:xlink="http://www.w3.org/1999/xlink" x="0px" y="0px"
	 width="413.8389px" height="345.9355px" viewBox="0 0 413.8389 345.9355" enable-background="new 0 0 413.8389 345.9355"
	 xml:space="preserve">
<g>
	<g id="ARC_27_">
		<path fill="none" stroke="#FF0000" stroke-width="0.0028" stroke-miterlimit="10" d="M377.5498,16.4727
			c14.873,0,26.9297,12.0566,26.9297,26.9297"/>
	</g>
	<g id="LINE_25_">
		
			<line fill="none" stroke="#FF0000" stroke-width="0.0028" stroke-miterlimit="10" x1="404.4795" y1="247.4971" x2="404.4795" y2="43.4023"/>
	</g>
	<g id="ARC_26_">
		<path fill="none" stroke="#FF0000" stroke-width="0.0028" stroke-miterlimit="10" d="M404.4795,247.4971
			c0,14.8711-12.0566,26.9277-26.9297,26.9277"/>
	</g>
	<g id="LINE_24_">
		
			<line fill="none" stroke="#FF0000" stroke-width="0.0028" stroke-miterlimit="10" x1="235.8174" y1="274.4248" x2="377.5498" y2="274.4248"/>
	</g>
	<g id="ARC_25_">
		<path fill="none" stroke="#FF0000" stroke-width="0.0028" stroke-miterlimit="10" d="M235.8174,274.4248
			c-14.8711,0-26.9277-12.0566-26.9277-26.9277"/>
	</g>
	<g id="LINE_23_">
		
			<line fill="none" stroke="#FF0000" stroke-width="0.0028" stroke-miterlimit="10" x1="208.8896" y1="247.4971" x2="208.8896" y2="43.4023"/>
	</g>
	<g id="ARC_24_">
		<path fill="none" stroke="#FF0000" stroke-width="0.0028" stroke-miterlimit="10" d="M208.8896,43.4023
			c0-14.873,12.0566-26.9297,26.9277-26.9297"/>
	</g>
	<g id="LINE_19_">
		
			<line fill="none" stroke="#FF0000" stroke-width="0.0028" stroke-miterlimit="10" x1="235.8174" y1="16.4727" x2="377.5498" y2="16.4727"/>
	</g>
	<g id="CIRCLE_35_">
		<path fill="none" stroke="#FF0000" stroke-width="0.0028" stroke-miterlimit="10" d="M377.5498,37.7334
			c3.1309-0.001,5.6699,2.5371,5.6699,5.668c0,3.1328-2.5391,5.6699-5.6699,5.6699s-5.668-2.5381-5.668-5.6699
			C371.8818,40.2705,374.4189,37.7324,377.5498,37.7334L377.5498,37.7334z"/>
	</g>
	<g id="CIRCLE_34_">
		<path fill="none" stroke="#FF0000" stroke-width="0.0028" stroke-miterlimit="10" d="M377.5498,241.8271
			c3.1309,0,5.6699,2.5391,5.6699,5.668c0,3.1328-2.5391,5.6699-5.6699,5.6719c-3.1309-0.002-5.668-2.5391-5.668-5.6699
			S374.4189,241.8271,377.5498,241.8271L377.5498,241.8271z"/>
	</g>
	<g id="CIRCLE_33_">
		<path fill="none" stroke="#FF0000" stroke-width="0.0028" stroke-miterlimit="10" d="M235.8174,37.7324
			c3.1309,0,5.6699,2.5381,5.6689,5.6689c0.001,3.1318-2.5381,5.6699-5.6689,5.6699s-5.668-2.5381-5.668-5.6699
			C230.1494,40.2705,232.6865,37.7324,235.8174,37.7324L235.8174,37.7324z"/>
	</g>
	<g id="CIRCLE_32_">
		<path fill="none" stroke="#FF0000" stroke-width="0.0028" stroke-miterlimit="10" d="M235.8174,241.8271
			c3.1309,0,5.6699,2.5391,5.6699,5.6699s-2.5391,5.6699-5.6699,5.6699s-5.668-2.541-5.668-5.6719
			S232.6865,241.8271,235.8174,241.8271L235.8174,241.8271z"/>
	</g>
	<g id="ARC_23_">
		<path fill="none" stroke="#FF0000" stroke-width="0.0028" stroke-miterlimit="10" d="M380.3857,63.041
			c-10.8477,1.5654-20.9082-5.958-22.4746-16.8047c-0.2715-1.8799-0.2715-3.7891-0.001-5.6689"/>
	</g>
	<g id="LINE_18_">
		
			<line fill="none" stroke="#FF0000" stroke-width="0.0028" stroke-miterlimit="10" x1="255.4561" y1="40.5674" x2="357.9102" y2="40.5674"/>
	</g>
	<g id="ARC_22_">
		<path fill="none" stroke="#FF0000" stroke-width="0.0028" stroke-miterlimit="10" d="M255.4561,40.5674
			c1.5664,10.8457-5.957,20.9092-16.8027,22.4736c-1.8809,0.2715-3.791,0.2725-5.6699,0.001"/>
	</g>
	<g id="LINE_17_">
		
			<line fill="none" stroke="#FF0000" stroke-width="0.0028" stroke-miterlimit="10" x1="232.9834" y1="227.8564" x2="232.9834" y2="63.042"/>
	</g>
	<g id="ARC_21_">
		<path fill="none" stroke="#FF0000" stroke-width="0.0028" stroke-miterlimit="10" d="M232.9834,227.8564
			c10.8457-1.5645,20.9082,5.959,22.4727,16.8047c0.2715,1.8789,0.2715,3.791,0,5.6699"/>
	</g>
	<g id="LINE_16_">
		
			<line fill="none" stroke="#FF0000" stroke-width="0.0028" stroke-miterlimit="10" x1="255.4561" y1="250.3311" x2="357.9121" y2="250.3311"/>
	</g>
	<g id="ARC_20_">
		<path fill="none" stroke="#FF0000" stroke-width="0.0028" stroke-miterlimit="10" d="M357.9121,250.3311
			c-1.5654-10.8457,5.958-20.9082,16.8037-22.4746c1.8809-0.2695,3.7891-0.2695,5.6699,0"/>
	</g>
	<g id="LINE_15_">
		
			<line fill="none" stroke="#FF0000" stroke-width="0.0028" stroke-miterlimit="10" x1="380.3857" y1="227.8564" x2="380.3857" y2="63.041"/>
	</g>
</g>
<g>
	<g>
		<path stroke="#CCCC66" stroke-width="0.1417" stroke-miterlimit="10" d="M110.0269,251.46
			c-0.1172,0.0762-0.2549,0.1484-0.4131,0.2188c-0.1582,0.0693-0.335,0.126-0.5313,0.1699
			c-0.1963,0.0449-0.4121,0.0664-0.6465,0.0664c-0.3477,0-0.6709-0.0586-0.9688-0.1748c-0.2969-0.1172-0.5537-0.2783-0.7686-0.4844
			c-0.2158-0.2061-0.3848-0.4502-0.5078-0.7314c-0.124-0.2813-0.1855-0.5898-0.1855-0.9258c0-0.3037,0.0537-0.5898,0.1611-0.8594
			c0.1084-0.2695,0.2627-0.5039,0.4658-0.7031c0.2021-0.1992,0.4512-0.3574,0.7451-0.4746s0.6289-0.1758,1.002-0.1758
			c0.1074,0,0.2021,0.0078,0.2852,0.0234c0.082,0.0166,0.1582,0.0332,0.2275,0.0527c0.0762,0.0254,0.1455,0.0508,0.209,0.0762
			h0.0186c-0.0059-0.0254-0.0117-0.0537-0.0186-0.0859c-0.0059-0.0566-0.0156-0.1328-0.0283-0.2275l-0.1045-1.1104h-2.0889
			c-0.2666,0-0.3994-0.1309-0.3994-0.3906v-0.2656c0-0.2656,0.1328-0.3984,0.3994-0.3984h2.7725
			c0.2529,0,0.3896,0.127,0.4082,0.3799l0.2471,2.6875c0.0186,0.2334-0.0791,0.3926-0.2949,0.4746l-0.085,0.0283
			c-0.0889,0.0313-0.1758,0.0449-0.2607,0.0381c-0.0859-0.0068-0.1758-0.0254-0.2715-0.0576
			c-0.082-0.0313-0.1895-0.0674-0.3223-0.1084s-0.2852-0.0615-0.4561-0.0615c-0.3857,0-0.707,0.1055-0.9639,0.3184
			c-0.2568,0.2109-0.3848,0.4941-0.3848,0.8496c0,0.1777,0.0352,0.3369,0.1045,0.4795c0.0703,0.1416,0.1631,0.2627,0.2803,0.3604
			c0.1172,0.0986,0.252,0.1738,0.4033,0.2285c0.1523,0.0537,0.3105,0.0801,0.4756,0.0801c0.2656,0,0.4922-0.0469,0.6787-0.1426
			c0.1865-0.0947,0.334-0.1855,0.4414-0.2754c0.2275-0.1582,0.4082-0.1328,0.541,0.0762l0.1904,0.2852
			c0.0693,0.0947,0.1016,0.1914,0.0947,0.2891c-0.0059,0.0986-0.0566,0.1826-0.1523,0.252
			C110.2437,251.3115,110.144,251.3838,110.0269,251.46z"/>
		<path stroke="#CCCC66" stroke-width="0.1417" stroke-miterlimit="10" d="M103.3276,251.4883
			c-0.0693,0.209-0.2178,0.3135-0.4463,0.3135h-0.6074c-0.2285,0-0.377-0.1045-0.4463-0.3135l-2.1563-5.9736
			c-0.0498-0.1387-0.0459-0.25,0.0146-0.332s0.1631-0.123,0.3086-0.123h0.4844c0.2344,0,0.3799,0.1113,0.4365,0.332l1.3965,4.0645
			c0.0313,0.1016,0.0635,0.207,0.0947,0.3184s0.0605,0.2168,0.085,0.3184c0.0254,0.1133,0.0508,0.2305,0.0762,0.3516h0.0195
			c0.0313-0.1211,0.0596-0.2383,0.085-0.3516c0.0254-0.1016,0.0527-0.207,0.0811-0.3184s0.0586-0.2168,0.0898-0.3184l1.377-4.0645
			c0.0635-0.2207,0.2129-0.332,0.4463-0.332h0.5039c0.1455,0,0.248,0.041,0.3086,0.123c0.0596,0.082,0.0645,0.1934,0.0137,0.332
			L103.3276,251.4883z"/>
		<path stroke="#CCCC66" stroke-width="0.1417" stroke-miterlimit="10" d="M96.5288,249.8643
			c-0.1777,0.4238-0.418,0.7891-0.7217,1.0918c-0.3037,0.3047-0.6553,0.541-1.0547,0.708c-0.3984,0.167-0.8223,0.251-1.2725,0.251
			c-0.3223,0-0.6074-0.0391-0.8545-0.1182s-0.4521-0.166-0.6172-0.2607c-0.1963-0.1143-0.3643-0.2402-0.5029-0.3799h-0.0195
			c0.0068,0.0127,0.0098,0.0283,0.0098,0.0479v0.1133v0.1621c0,0.0938-0.0332,0.1719-0.0996,0.2324s-0.1631,0.0898-0.29,0.0898
			h-0.2373c-0.2598,0-0.3887-0.1328-0.3887-0.3984v-2.7539c0-0.2656,0.1289-0.3994,0.3887-0.3994h1.3486
			c0.2656,0,0.3984,0.1338,0.3984,0.3994v0.2559c0,0.2656-0.1328,0.3984-0.3984,0.3984h-0.6455v0.751
			c0.1201,0.1396,0.2627,0.2627,0.4268,0.3701c0.1465,0.0947,0.3252,0.1807,0.5371,0.2559c0.2119,0.0762,0.46,0.1143,0.7451,0.1143
			c0.3164,0,0.6113-0.0576,0.8828-0.1748c0.2725-0.1172,0.5098-0.2813,0.7129-0.4902c0.2021-0.209,0.3623-0.46,0.4795-0.7539
			c0.1172-0.2949,0.1758-0.6191,0.1758-0.9736c0-0.3174-0.0508-0.6182-0.1523-0.9023c-0.1006-0.2842-0.248-0.5332-0.4414-0.7451
			c-0.1934-0.2129-0.4316-0.3809-0.7168-0.5039s-0.6113-0.1855-0.9785-0.1855c-0.3604,0-0.6641,0.0488-0.9111,0.1426
			c-0.2471,0.0957-0.4434,0.1875-0.5889,0.2754c-0.1201,0.0703-0.2246,0.0977-0.3135,0.0811
			c-0.0889-0.0156-0.168-0.0771-0.2373-0.1846l-0.1709-0.2656c-0.1396-0.2158-0.1113-0.3994,0.085-0.5508
			c0.0703-0.0508,0.1729-0.1113,0.3086-0.1816c0.1367-0.0693,0.2979-0.1367,0.4844-0.2031c0.1875-0.0664,0.3994-0.123,0.6367-0.166
			c0.2373-0.0449,0.4951-0.0674,0.7734-0.0674c0.5068,0,0.9717,0.0889,1.3965,0.2666c0.4238,0.1768,0.791,0.4219,1.1016,0.7354
			c0.3096,0.3135,0.5518,0.6855,0.7266,1.1162c0.1738,0.4297,0.2607,0.8955,0.2607,1.3955
			C96.7944,248.9717,96.7056,249.4404,96.5288,249.8643z"/>
		<path stroke="#CCCC66" stroke-width="0.1417" stroke-miterlimit="10" d="M89.2358,251.4033c0,0.2656-0.1299,0.3984-0.3896,0.3984
			h-0.4365c-0.2598,0-0.3896-0.1328-0.3896-0.3984v-3.4854c0-0.1016,0.0029-0.2119,0.0098-0.333
			c0.0059-0.1191,0.0156-0.2344,0.0283-0.3418c0.0127-0.1191,0.0225-0.2432,0.0283-0.3701h-0.0186
			c-0.0576,0.127-0.1211,0.251-0.1904,0.3701c-0.0508,0.1074-0.1094,0.2227-0.1758,0.3418
			c-0.0664,0.1211-0.1309,0.2314-0.1943,0.333l-2.4023,3.6182c-0.0957,0.1777-0.25,0.2656-0.4658,0.2656h-0.5127
			c-0.2656,0-0.3984-0.1328-0.3984-0.3984v-5.9453c0-0.2656,0.1328-0.3984,0.3984-0.3984h0.4277
			c0.2656,0,0.3984,0.1328,0.3984,0.3984v3.4951c0,0.1006-0.001,0.2119-0.0049,0.332c-0.0029,0.1201-0.0107,0.2344-0.0234,0.3418
			c-0.0127,0.1201-0.0254,0.2441-0.0381,0.3701h0.0186c0.0576-0.126,0.1172-0.25,0.1807-0.3701
			c0.0508-0.1074,0.1113-0.2217,0.1807-0.3418s0.1357-0.2314,0.1992-0.332l2.3936-3.6279c0.0947-0.1777,0.2529-0.2656,0.4746-0.2656
			h0.5127c0.2598,0,0.3896,0.1328,0.3896,0.3984V251.4033z"/>
		<path stroke="#CCCC66" stroke-width="0.1417" stroke-miterlimit="10" d="M82.1802,251.4033c0,0.2656-0.1299,0.3984-0.3896,0.3984
			h-1.9092c-0.5186,0-0.9902-0.0762-1.415-0.2285c-0.4238-0.1514-0.7842-0.373-1.082-0.6641s-0.5283-0.6465-0.6934-1.0635
			c-0.1641-0.418-0.2471-0.8926-0.2471-1.4248c0-0.5313,0.083-1.0059,0.2471-1.4238c0.165-0.418,0.3955-0.7695,0.6934-1.0547
			s0.6582-0.5029,1.082-0.6543c0.4248-0.1523,0.8965-0.2285,1.415-0.2285h1.9092c0.2598,0,0.3896,0.1328,0.3896,0.3984V251.4033z
			 M80.9644,250.7471v-4.6328h-1.0166c-0.335,0-0.6406,0.0498-0.916,0.1514c-0.2754,0.1006-0.5107,0.249-0.707,0.4414
			c-0.1963,0.1934-0.3486,0.4336-0.4561,0.7217s-0.1611,0.6191-0.1611,0.9922c0,0.7598,0.2021,1.3379,0.6074,1.7334
			s0.9492,0.5928,1.6328,0.5928H80.9644z"/>
	</g>
	<g>
		<path stroke="#CCCC66" stroke-width="0.1417" stroke-miterlimit="10" d="M173.3999,183.3193
			c-0.2666,0-0.3994-0.1299-0.3994-0.3896v-0.4365c0-0.2598,0.1328-0.3896,0.3994-0.3896h1.9277v-1.377
			c0-0.3164,0.0527-0.6064,0.1602-0.8691c0.1084-0.2627,0.2598-0.4893,0.457-0.6787c0.1953-0.1895,0.4297-0.3379,0.7021-0.4414
			c0.2725-0.1045,0.5732-0.1563,0.9023-0.1563s0.6279,0.0518,0.8975,0.1563c0.2686,0.1035,0.5,0.252,0.6934,0.4414
			s0.3418,0.416,0.4453,0.6787c0.1055,0.2627,0.1572,0.5527,0.1572,0.8691v2.2031c0,0.2598-0.1328,0.3896-0.3994,0.3896H173.3999z
			 M176.3901,182.1035h2.2988v-1.168c0-0.3545-0.1035-0.6279-0.3086-0.8213c-0.2061-0.1934-0.4824-0.29-0.8311-0.29
			c-0.3545,0-0.6357,0.0986-0.8447,0.2939c-0.209,0.1973-0.3145,0.4756-0.3145,0.8359V182.1035z"/>
		<path stroke="#CCCC66" stroke-width="0.1417" stroke-miterlimit="10" d="M174.396,177.8584
			c-0.3105-0.1387-0.5771-0.3281-0.8018-0.5693c-0.2256-0.2402-0.3994-0.5225-0.5225-0.8447
			c-0.123-0.3232-0.1855-0.668-0.1855-1.0352s0.0625-0.7129,0.1855-1.0352s0.2969-0.6064,0.5225-0.8496
			c0.2246-0.2441,0.4912-0.4355,0.8018-0.5742c0.3105-0.1406,0.6523-0.209,1.0254-0.209c0.3672,0,0.708,0.0684,1.0215,0.209
			c0.3135,0.1387,0.5801,0.3301,0.8027,0.5742c0.2207,0.2432,0.3945,0.5273,0.5215,0.8496s0.1904,0.668,0.1904,1.0352
			s-0.0635,0.7119-0.1904,1.0352c-0.127,0.3223-0.3008,0.6045-0.5215,0.8447c-0.2227,0.2412-0.4893,0.4307-0.8027,0.5693
			c-0.3135,0.1406-0.6543,0.209-1.0215,0.209C175.0483,178.0674,174.7065,177.999,174.396,177.8584z M176.0347,176.7295
			c0.1865-0.0762,0.3467-0.1797,0.4795-0.3086c0.1328-0.1309,0.2354-0.2822,0.3086-0.457c0.0732-0.1738,0.1094-0.3584,0.1094-0.5547
			s-0.0361-0.3809-0.1094-0.5557s-0.1758-0.3271-0.3086-0.46c-0.1328-0.1338-0.293-0.2383-0.4795-0.3145
			c-0.1875-0.0762-0.3906-0.1133-0.6133-0.1133c-0.2266,0-0.4336,0.0371-0.6172,0.1133s-0.3418,0.1807-0.4746,0.3145
			c-0.1328,0.1328-0.2354,0.2852-0.3086,0.46c-0.0723,0.1748-0.1094,0.3594-0.1094,0.5557s0.0371,0.3809,0.1094,0.5547
			c0.0732,0.1748,0.1758,0.3262,0.3086,0.457c0.1328,0.1289,0.291,0.2324,0.4746,0.3086c0.1836,0.0752,0.3906,0.1133,0.6172,0.1133
			C175.644,176.8428,175.8472,176.8047,176.0347,176.7295z"/>
		<path stroke="#CCCC66" stroke-width="0.1417" stroke-miterlimit="10" d="M173.3335,171.0215
			c-0.2227-0.0635-0.333-0.209-0.333-0.4365v-0.6563c0-0.2334,0.1143-0.3789,0.3418-0.4365l2.4209-0.7305
			c0.0645-0.0195,0.127-0.0352,0.1904-0.0469c0.0635-0.0137,0.1201-0.0254,0.1709-0.0391c0.0566-0.0117,0.1113-0.0254,0.1621-0.0371
			v-0.0195c-0.0508-0.0059-0.1055-0.0156-0.1621-0.0293c-0.0508-0.0117-0.1074-0.0254-0.1709-0.0371
			c-0.0635-0.0137-0.126-0.0293-0.1904-0.0469l-2.4209-0.7324c-0.2275-0.0566-0.3418-0.2051-0.3418-0.4453v-0.6367
			c0-0.2344,0.1104-0.3828,0.333-0.4473L177.3979,165c0.1328-0.0371,0.2402-0.0273,0.3223,0.0293s0.123,0.1582,0.123,0.3047v0.4355
			c0,0.2344-0.1172,0.3809-0.3516,0.4375l-2.8301,0.7695c-0.0684,0.0176-0.1328,0.0332-0.1895,0.043
			c-0.0566,0.0078-0.1113,0.0195-0.1611,0.0332c-0.0576,0.0117-0.1104,0.0215-0.1611,0.0273v0.0195
			c0.0508,0.0059,0.1035,0.0156,0.1611,0.0293c0.0498,0.0117,0.1045,0.0234,0.1611,0.0332c0.0566,0.0078,0.1211,0.0234,0.1895,0.041
			l2.8301,0.8086c0.2285,0.0566,0.3418,0.2012,0.3418,0.4355v0.3613c0,0.248-0.1133,0.3926-0.3418,0.4375l-2.8301,0.8164
			c-0.0684,0.0186-0.1328,0.0332-0.1895,0.042c-0.0566,0.0098-0.1113,0.0215-0.1611,0.0332
			c-0.0576,0.0137-0.1104,0.0234-0.1611,0.0293v0.0195c0.0508,0.0059,0.1035,0.0156,0.1611,0.0273
			c0.0498,0.0137,0.1045,0.0234,0.1611,0.0332s0.1211,0.0215,0.1895,0.0332l2.8301,0.7793
			c0.2344,0.0449,0.3516,0.1865,0.3516,0.4277v0.4551c0,0.1396-0.041,0.2393-0.123,0.2988
			c-0.082,0.0605-0.1895,0.0723-0.3223,0.0332L173.3335,171.0215z"/>
		<path stroke="#CCCC66" stroke-width="0.1417" stroke-miterlimit="10" d="M174.4487,164.3359
			c-0.3066-0.1201-0.5762-0.293-0.8066-0.5176c-0.2324-0.2246-0.416-0.498-0.5508-0.8213c-0.1367-0.3232-0.2051-0.6836-0.2051-1.083
			c0-0.3799,0.0557-0.709,0.166-0.9873c0.1113-0.2783,0.2168-0.4971,0.3184-0.6553c0.127-0.209,0.3047-0.2529,0.5322-0.1328
			l0.1904,0.1143c0.1074,0.0635,0.1699,0.1377,0.1895,0.2227c0.0186,0.0859,0,0.1885-0.0566,0.3086
			c-0.0703,0.1143-0.1406,0.2617-0.209,0.4414c-0.0703,0.1807-0.1055,0.3818-0.1055,0.6035c0,0.1836,0.0293,0.3594,0.0859,0.5273
			c0.0566,0.167,0.1406,0.3164,0.252,0.4463c0.1104,0.1299,0.248,0.2373,0.4121,0.3223c0.165,0.0859,0.3584,0.1377,0.5801,0.1572
			v-2.9541c0-0.1201,0.041-0.2197,0.123-0.2988s0.1777-0.1182,0.2852-0.1182c0.3291,0,0.6367,0.0469,0.9219,0.1416
			c0.2842,0.0957,0.5273,0.2334,0.7305,0.4131c0.2031,0.1807,0.3623,0.4053,0.4795,0.6748s0.1758,0.5742,0.1758,0.916
			c0,0.3613-0.0615,0.6934-0.1846,0.9971c-0.124,0.3037-0.2988,0.5635-0.5234,0.7793c-0.2246,0.2148-0.4922,0.3828-0.8018,0.5029
			c-0.3105,0.1201-0.6523,0.1807-1.0264,0.1807C175.0796,164.5166,174.7554,164.4561,174.4487,164.3359z M175.9722,163.2539
			c0.3242-0.0576,0.583-0.1885,0.7793-0.3945s0.2949-0.4639,0.2949-0.7744c0-0.2783-0.0938-0.5078-0.2813-0.6885
			c-0.1855-0.1797-0.4512-0.2764-0.793-0.2891V163.2539z"/>
		<path stroke="#CCCC66" stroke-width="0.1417" stroke-miterlimit="10" d="M173.3999,159.0371
			c-0.2666,0-0.3994-0.1289-0.3994-0.3887v-0.418c0-0.2598,0.1328-0.3896,0.3994-0.3896h1.5566
			c0.2217,0,0.4375-0.0264,0.6465-0.0811c0.209-0.0537,0.3945-0.1338,0.5596-0.2412c0.165-0.1084,0.2979-0.2441,0.3994-0.4092
			c0.1006-0.1641,0.1514-0.3574,0.1514-0.5791c0-0.2715,0.1338-0.4082,0.3994-0.4082h0.3701c0.1328,0,0.2324,0.0273,0.2988,0.0811
			s0.0996,0.1465,0.0996,0.2803c0,0.1709-0.0361,0.3301-0.1084,0.4795c-0.0732,0.1484-0.168,0.2842-0.2852,0.4082
			c-0.1172,0.123-0.249,0.2295-0.3945,0.3184c-0.1455,0.0879-0.291,0.1543-0.4365,0.1992v0.0186
			c0.0313,0,0.0635-0.0029,0.0947-0.0098c0.0313-0.0059,0.0664-0.0107,0.1045-0.0137s0.082-0.0049,0.1328-0.0049h0.4561
			c0.2656,0,0.3984,0.1328,0.3984,0.3984v0.3711c0,0.2598-0.1328,0.3887-0.3984,0.3887H173.3999z"/>
		<path stroke="#CCCC66" stroke-width="0.1417" stroke-miterlimit="10" d="M173.3999,152.9219
			c-0.2666,0-0.3994-0.1299-0.3994-0.3896v-0.4365c0-0.2598,0.1328-0.3896,0.3994-0.3896h5.9434
			c0.2666,0,0.3994,0.1299,0.3994,0.3896v0.4365c0,0.2598-0.1328,0.3896-0.3994,0.3896H173.3999z"/>
		<path stroke="#CCCC66" stroke-width="0.1417" stroke-miterlimit="10" d="M173.3999,150.3291
			c-0.2666,0-0.3994-0.1289-0.3994-0.3887v-0.418c0-0.2598,0.1328-0.3896,0.3994-0.3896h1.8701
			c0.2158,0,0.4189-0.0332,0.6123-0.0996s0.3633-0.1602,0.5078-0.2803c0.1465-0.1201,0.2598-0.2656,0.3418-0.4365
			s0.124-0.3643,0.124-0.5791c0-0.3037-0.0908-0.5068-0.2705-0.6084c-0.1807-0.1006-0.4199-0.1514-0.7168-0.1514h-2.4688
			c-0.2666,0-0.3994-0.1328-0.3994-0.3994v-0.4082c0-0.2656,0.1328-0.3984,0.3994-0.3984h2.7148
			c0.6465,0,1.1152,0.1475,1.4063,0.4414s0.4365,0.7109,0.4365,1.249c0,0.2471-0.0342,0.4648-0.1045,0.6553
			c-0.0703,0.1895-0.1553,0.3545-0.2559,0.4932c-0.1016,0.1396-0.2129,0.2568-0.333,0.3516s-0.2314,0.168-0.332,0.2188v0.0186
			c0.0186,0,0.041-0.0029,0.0664-0.0098c0.0186,0,0.041-0.001,0.0664-0.0039c0.0244-0.0039,0.0537-0.0049,0.085-0.0049h0.2949
			c0.2656,0,0.3984,0.1299,0.3984,0.3887v0.3711c0,0.2598-0.1328,0.3887-0.3984,0.3887H173.3999z"/>
		<path stroke="#CCCC66" stroke-width="0.1417" stroke-miterlimit="10" d="M173.3423,141.9678
			c-0.0752-0.1172-0.1494-0.2549-0.2178-0.4131c-0.0703-0.1582-0.127-0.335-0.1719-0.5313
			c-0.0439-0.1963-0.0664-0.4121-0.0664-0.6465c0-0.3477,0.0586-0.6709,0.1758-0.9688c0.1172-0.2969,0.2793-0.5537,0.4844-0.7686
			c0.2051-0.2158,0.4492-0.3848,0.7314-0.5078c0.2822-0.124,0.5908-0.1855,0.9258-0.1855c0.3037,0,0.5908,0.0537,0.8594,0.1611
			c0.2686,0.1084,0.5029,0.2627,0.7021,0.4658c0.2002,0.2021,0.3584,0.4512,0.4756,0.7451c0.1162,0.2939,0.1748,0.6289,0.1748,1.002
			c0,0.1074-0.0078,0.2021-0.0234,0.2852c-0.0156,0.082-0.0332,0.1582-0.0518,0.2275c-0.0254,0.0762-0.0508,0.1455-0.0762,0.209
			v0.0186c0.0254-0.0059,0.0537-0.0117,0.085-0.0186c0.0576-0.0059,0.1338-0.0156,0.2285-0.0283l1.1113-0.1045v-2.0889
			c0-0.2666,0.1289-0.3994,0.3887-0.3994h0.2656c0.2666,0,0.3994,0.1328,0.3994,0.3994v2.7725c0,0.2529-0.126,0.3896-0.3799,0.4082
			l-2.6875,0.2471c-0.2344,0.0186-0.3926-0.0791-0.4746-0.2949l-0.0283-0.085c-0.0322-0.0889-0.0439-0.1758-0.0381-0.2607
			c0.0059-0.0859,0.0254-0.1758,0.0566-0.2715c0.0313-0.082,0.0684-0.1895,0.1094-0.3223s0.0625-0.2852,0.0625-0.4561
			c0-0.3857-0.1074-0.707-0.3184-0.9639c-0.2129-0.2568-0.4961-0.3848-0.8496-0.3848c-0.1777,0-0.3379,0.0352-0.4805,0.1045
			c-0.1426,0.0703-0.2627,0.1631-0.3613,0.2803c-0.0977,0.1172-0.1738,0.252-0.2266,0.4033
			c-0.0547,0.1523-0.082,0.3105-0.082,0.4756c0,0.2656,0.0488,0.4922,0.1426,0.6787c0.0957,0.1865,0.1875,0.334,0.2754,0.4414
			c0.1582,0.2275,0.1328,0.4082-0.0762,0.541l-0.2842,0.1904c-0.0947,0.0693-0.1914,0.1016-0.29,0.0947
			c-0.0977-0.0059-0.1816-0.0566-0.252-0.1523C173.4917,142.1846,173.4185,142.085,173.3423,141.9678z"/>
		<path stroke="#CCCC66" stroke-width="0.1417" stroke-miterlimit="10" d="M173.314,135.2686
			c-0.209-0.0693-0.3135-0.2178-0.3135-0.4463v-0.6074c0-0.2285,0.1045-0.377,0.3135-0.4463l5.9727-2.1563
			c0.1396-0.0498,0.25-0.0459,0.332,0.0146c0.083,0.0605,0.124,0.1631,0.124,0.3086v0.4844c0,0.2344-0.1104,0.3799-0.332,0.4365
			l-4.0645,1.3965c-0.1016,0.0313-0.208,0.0635-0.3184,0.0947s-0.2168,0.0605-0.3174,0.085
			c-0.1152,0.0254-0.2324,0.0508-0.3516,0.0762v0.0195c0.1191,0.0313,0.2363,0.0596,0.3516,0.085
			c0.1006,0.0254,0.207,0.0527,0.3174,0.0811s0.2168,0.0586,0.3184,0.0898l4.0645,1.377c0.2217,0.0635,0.332,0.2129,0.332,0.4463
			v0.5039c0,0.1455-0.041,0.248-0.124,0.3086c-0.082,0.0596-0.1924,0.0645-0.332,0.0137L173.314,135.2686z"/>
		<path stroke="#CCCC66" stroke-width="0.1417" stroke-miterlimit="10" d="M173.0483,131.4414
			c-0.1396,0.0439-0.248,0.0361-0.3281-0.0234c-0.0791-0.0605-0.1191-0.1631-0.1191-0.3086v-0.2188
			c0-0.2344,0.1084-0.3828,0.3232-0.4463l6.7139-2.1748c0.1387-0.0439,0.248-0.0361,0.3281,0.0234
			c0.0781,0.0605,0.1182,0.1631,0.1182,0.3086v0.209c0,0.2285-0.1074,0.3799-0.3232,0.4561L173.0483,131.4414z"/>
		<path stroke="#CCCC66" stroke-width="0.1417" stroke-miterlimit="10" d="M174.937,127.2822
			c-0.4238-0.1777-0.7871-0.418-1.0918-0.7217c-0.3027-0.3037-0.5391-0.6553-0.707-1.0547c-0.168-0.3984-0.252-0.8223-0.252-1.2725
			c0-0.3223,0.04-0.6074,0.1191-0.8545s0.166-0.4521,0.2617-0.6172c0.1133-0.1963,0.2402-0.3643,0.3789-0.5029v-0.0195
			c-0.0127,0.0068-0.0283,0.0098-0.0469,0.0098h-0.1143h-0.1611c-0.0957,0-0.1729-0.0332-0.2324-0.0996
			c-0.0605-0.0664-0.0908-0.1631-0.0908-0.29v-0.2373c0-0.2598,0.1328-0.3887,0.3994-0.3887h2.7539
			c0.2656,0,0.3984,0.1289,0.3984,0.3887v1.3486c0,0.2656-0.1328,0.3984-0.3984,0.3984h-0.2568
			c-0.2666,0-0.3994-0.1328-0.3994-0.3984v-0.6455h-0.75c-0.1387,0.1201-0.2627,0.2627-0.3701,0.4268
			c-0.0947,0.1465-0.1807,0.3252-0.2568,0.5371s-0.1133,0.46-0.1133,0.7451c0,0.3164,0.0586,0.6113,0.1758,0.8828
			c0.1172,0.2725,0.2793,0.5098,0.4883,0.7129c0.209,0.2021,0.4609,0.3623,0.7559,0.4795c0.2939,0.1172,0.6182,0.1758,0.9727,0.1758
			c0.3164,0,0.6172-0.0508,0.9023-0.1523c0.2852-0.1006,0.5332-0.248,0.7461-0.4414c0.2109-0.1934,0.3789-0.4316,0.502-0.7168
			c0.124-0.2852,0.1855-0.6113,0.1855-0.9785c0-0.3604-0.0469-0.6641-0.1426-0.9111c-0.0938-0.2471-0.1865-0.4434-0.2754-0.5889
			c-0.0693-0.1201-0.0957-0.2246-0.0801-0.3135s0.0771-0.168,0.1855-0.2373l0.2656-0.1709c0.2148-0.1396,0.3984-0.1113,0.5508,0.085
			c0.0508,0.0703,0.1104,0.1729,0.1797,0.3086c0.0703,0.1367,0.1387,0.2979,0.2051,0.4844c0.0664,0.1875,0.1211,0.3994,0.166,0.6367
			c0.0439,0.2373,0.0664,0.4951,0.0664,0.7734c0,0.5068-0.0889,0.9717-0.2656,1.3965c-0.1777,0.4238-0.4229,0.791-0.7363,1.1016
			c-0.3135,0.3096-0.6855,0.5518-1.1152,0.7266c-0.4316,0.1738-0.8965,0.2607-1.3965,0.2607
			C175.8306,127.5479,175.3618,127.459,174.937,127.2822z"/>
		<path stroke="#CCCC66" stroke-width="0.1417" stroke-miterlimit="10" d="M173.3999,119.9893
			c-0.2666,0-0.3994-0.1299-0.3994-0.3896v-0.4365c0-0.2598,0.1328-0.3896,0.3994-0.3896h3.4844
			c0.1016,0,0.2129,0.0029,0.332,0.0098c0.1211,0.0059,0.2344,0.0156,0.3418,0.0283c0.1211,0.0127,0.2441,0.0225,0.3711,0.0283
			v-0.0186c-0.127-0.0576-0.25-0.1211-0.3711-0.1904c-0.1074-0.0508-0.2207-0.1094-0.3418-0.1758
			c-0.1191-0.0664-0.2305-0.1309-0.332-0.1943l-3.6172-2.4023c-0.1777-0.0957-0.2666-0.25-0.2666-0.4658v-0.5127
			c0-0.2656,0.1328-0.3984,0.3994-0.3984h5.9434c0.2666,0,0.3994,0.1328,0.3994,0.3984v0.4277c0,0.2656-0.1328,0.3984-0.3994,0.3984
			h-3.4941c-0.1016,0-0.2119-0.001-0.332-0.0049c-0.1211-0.0029-0.2344-0.0107-0.3418-0.0234
			c-0.1211-0.0127-0.2441-0.0254-0.3711-0.0381v0.0186c0.127,0.0576,0.25,0.1172,0.3711,0.1807
			c0.1074,0.0508,0.2207,0.1113,0.3418,0.1807c0.1201,0.0693,0.2305,0.1357,0.332,0.1992l3.6279,2.3936
			c0.1768,0.0947,0.2656,0.2529,0.2656,0.4746v0.5127c0,0.2598-0.1328,0.3896-0.3994,0.3896H173.3999z"/>
		<path stroke="#CCCC66" stroke-width="0.1417" stroke-miterlimit="10" d="M173.3999,112.9336
			c-0.2666,0-0.3994-0.1299-0.3994-0.3896v-1.9092c0-0.5186,0.0762-0.9902,0.2275-1.415c0.1523-0.4238,0.374-0.7842,0.665-1.082
			s0.6455-0.5283,1.0635-0.6934c0.418-0.1641,0.8926-0.2471,1.4248-0.2471s1.0068,0.083,1.4248,0.2471
			c0.418,0.165,0.7686,0.3955,1.0537,0.6934c0.2842,0.2979,0.5029,0.6582,0.6553,1.082c0.1523,0.4248,0.2275,0.8965,0.2275,1.415
			v1.9092c0,0.2598-0.1328,0.3896-0.3994,0.3896H173.3999z M174.0542,111.7178h4.6348v-1.0166c0-0.335-0.0508-0.6406-0.1523-0.916
			s-0.248-0.5107-0.4414-0.707s-0.4336-0.3486-0.7217-0.4561s-0.6191-0.1611-0.9922-0.1611c-0.7598,0-1.3379,0.2021-1.7334,0.6074
			s-0.5938,0.9492-0.5938,1.6328V111.7178z"/>
	</g>
	<g>
		<path stroke="#CCCC66" stroke-width="0.1417" stroke-miterlimit="10" d="M30.0503,187.502c-0.2666,0-0.3994-0.1299-0.3994-0.3896
			v-0.4365c0-0.2588,0.1328-0.3896,0.3994-0.3896h1.9277v-1.377c0-0.3164,0.0527-0.6055,0.1602-0.8691
			c0.1084-0.2617,0.2598-0.4883,0.457-0.6777c0.1953-0.1904,0.4297-0.3379,0.7021-0.4424s0.5732-0.1563,0.9023-0.1563
			s0.6279,0.0518,0.8975,0.1563c0.2686,0.1045,0.5,0.252,0.6934,0.4424c0.1934,0.1895,0.3418,0.416,0.4453,0.6777
			c0.1055,0.2637,0.1572,0.5527,0.1572,0.8691v2.2031c0,0.2598-0.1328,0.3896-0.3994,0.3896H30.0503z M33.0405,186.2861h2.2988
			v-1.168c0-0.3535-0.1035-0.6279-0.3086-0.8213c-0.2061-0.1924-0.4824-0.29-0.8311-0.29c-0.3545,0-0.6357,0.0986-0.8447,0.2949
			s-0.3145,0.4746-0.3145,0.8359V186.2861z"/>
		<path stroke="#CCCC66" stroke-width="0.1417" stroke-miterlimit="10" d="M31.0464,182.042
			c-0.3105-0.1396-0.5771-0.3301-0.8018-0.5703c-0.2256-0.2402-0.3994-0.5215-0.5225-0.8457
			c-0.123-0.3223-0.1855-0.667-0.1855-1.0342s0.0625-0.7119,0.1855-1.0352s0.2969-0.6064,0.5225-0.8506
			c0.2246-0.2432,0.4912-0.4346,0.8018-0.5742c0.3105-0.1387,0.6523-0.209,1.0254-0.209c0.3672,0,0.708,0.0703,1.0215,0.209
			c0.3135,0.1396,0.5801,0.3311,0.8027,0.5742c0.2207,0.2441,0.3945,0.5273,0.5215,0.8506s0.1904,0.668,0.1904,1.0352
			s-0.0635,0.7119-0.1904,1.0342c-0.127,0.3242-0.3008,0.6055-0.5215,0.8457c-0.2227,0.2402-0.4893,0.4307-0.8027,0.5703
			c-0.3135,0.1387-0.6543,0.209-1.0215,0.209C31.6987,182.251,31.3569,182.1807,31.0464,182.042z M32.6851,180.9111
			c0.1865-0.0762,0.3467-0.1777,0.4795-0.3086c0.1328-0.1289,0.2354-0.2813,0.3086-0.4551s0.1094-0.3594,0.1094-0.5557
			s-0.0361-0.3818-0.1094-0.5557s-0.1758-0.3281-0.3086-0.4609s-0.293-0.2373-0.4795-0.3125
			c-0.1875-0.0762-0.3906-0.1152-0.6133-0.1152c-0.2266,0-0.4336,0.0391-0.6172,0.1152c-0.1836,0.0752-0.3418,0.1797-0.4746,0.3125
			s-0.2354,0.2871-0.3086,0.4609c-0.0723,0.1738-0.1094,0.3594-0.1094,0.5557s0.0371,0.3818,0.1094,0.5557
			c0.0732,0.1738,0.1758,0.3262,0.3086,0.4551c0.1328,0.1309,0.291,0.2324,0.4746,0.3086s0.3906,0.1143,0.6172,0.1143
			C32.2944,181.0254,32.4976,180.9873,32.6851,180.9111z"/>
		<path stroke="#CCCC66" stroke-width="0.1417" stroke-miterlimit="10" d="M29.9839,175.2041
			c-0.2227-0.0625-0.333-0.209-0.333-0.4365v-0.6553c0-0.2344,0.1143-0.3789,0.3418-0.4365l2.4209-0.7314
			c0.0645-0.0195,0.127-0.0352,0.1904-0.0469c0.0635-0.0137,0.1201-0.0254,0.1709-0.0391c0.0566-0.0117,0.1113-0.0244,0.1621-0.0371
			v-0.0195c-0.0508-0.0059-0.1055-0.0156-0.1621-0.0283c-0.0508-0.0127-0.1074-0.0244-0.1709-0.0381
			c-0.0635-0.0117-0.126-0.0283-0.1904-0.0469l-2.4209-0.7314c-0.2275-0.0576-0.3418-0.2061-0.3418-0.4463v-0.6367
			c0-0.2344,0.1104-0.3828,0.333-0.4453l4.0645-1.2451c0.1328-0.0371,0.2402-0.0283,0.3223,0.0293
			c0.082,0.0566,0.123,0.1582,0.123,0.3027v0.4375c0,0.2344-0.1172,0.3799-0.3516,0.4365l-2.8301,0.7695
			c-0.0684,0.0195-0.1328,0.0332-0.1895,0.043s-0.1113,0.0205-0.1611,0.0332c-0.0576,0.0127-0.1104,0.0215-0.1611,0.0283v0.0186
			c0.0508,0.0068,0.1035,0.0156,0.1611,0.0293c0.0498,0.0117,0.1045,0.0234,0.1611,0.0332s0.1211,0.0234,0.1895,0.043l2.8301,0.8066
			c0.2285,0.0566,0.3418,0.2031,0.3418,0.4375v0.3604c0,0.2471-0.1133,0.3926-0.3418,0.4365l-2.8301,0.8164
			c-0.0684,0.0195-0.1328,0.0332-0.1895,0.043s-0.1113,0.0205-0.1611,0.0332c-0.0576,0.0127-0.1104,0.0225-0.1611,0.0293v0.0186
			c0.0508,0.0068,0.1035,0.0156,0.1611,0.0283c0.0498,0.0127,0.1045,0.0234,0.1611,0.0332s0.1211,0.0205,0.1895,0.0332
			l2.8301,0.7793c0.2344,0.0439,0.3516,0.1855,0.3516,0.4268v0.4561c0,0.1387-0.041,0.2383-0.123,0.2988
			s-0.1895,0.0713-0.3223,0.0332L29.9839,175.2041z"/>
		<path stroke="#CCCC66" stroke-width="0.1417" stroke-miterlimit="10" d="M31.0991,168.5195
			c-0.3066-0.1201-0.5762-0.293-0.8066-0.5176c-0.2324-0.2246-0.416-0.498-0.5508-0.8213c-0.1367-0.3232-0.2051-0.6836-0.2051-1.083
			c0-0.3799,0.0557-0.709,0.166-0.9873c0.1113-0.2783,0.2168-0.4971,0.3184-0.6553c0.127-0.209,0.3047-0.2529,0.5322-0.1328
			l0.1904,0.1143c0.1074,0.0635,0.1699,0.1377,0.1895,0.2227c0.0186,0.0859,0,0.1885-0.0566,0.3086
			c-0.0703,0.1143-0.1406,0.2617-0.209,0.4414c-0.0703,0.1807-0.1055,0.3818-0.1055,0.6035c0,0.1836,0.0293,0.3594,0.0859,0.5273
			c0.0566,0.167,0.1406,0.3164,0.252,0.4463c0.1104,0.1299,0.248,0.2373,0.4121,0.3223c0.165,0.0859,0.3584,0.1377,0.5801,0.1572
			v-2.9541c0-0.1201,0.041-0.2197,0.123-0.2988s0.1777-0.1182,0.2852-0.1182c0.3291,0,0.6367,0.0469,0.9219,0.1416
			c0.2842,0.0957,0.5273,0.2334,0.7305,0.4131c0.2031,0.1807,0.3623,0.4053,0.4795,0.6748s0.1758,0.5742,0.1758,0.916
			c0,0.3613-0.0615,0.6934-0.1846,0.9971c-0.124,0.3037-0.2988,0.5635-0.5234,0.7793c-0.2246,0.2148-0.4922,0.3828-0.8018,0.5029
			c-0.3105,0.1201-0.6523,0.1807-1.0264,0.1807C31.73,168.7002,31.4058,168.6396,31.0991,168.5195z M32.6226,167.4375
			c0.3242-0.0576,0.583-0.1885,0.7793-0.3945s0.2949-0.4639,0.2949-0.7744c0-0.2783-0.0938-0.5078-0.2813-0.6885
			c-0.1855-0.1797-0.4512-0.2764-0.793-0.2891V167.4375z"/>
		<path stroke="#CCCC66" stroke-width="0.1417" stroke-miterlimit="10" d="M30.0503,163.2197c-0.2666,0-0.3994-0.1289-0.3994-0.3887
			v-0.418c0-0.2598,0.1328-0.3896,0.3994-0.3896h1.5566c0.2217,0,0.4375-0.0264,0.6465-0.0811
			c0.209-0.0537,0.3945-0.1338,0.5596-0.2412c0.165-0.1084,0.2979-0.2441,0.3994-0.4092c0.1006-0.1641,0.1514-0.3574,0.1514-0.5791
			c0-0.2715,0.1338-0.4082,0.3994-0.4082h0.3701c0.1328,0,0.2324,0.0273,0.2988,0.0811s0.0996,0.1465,0.0996,0.2803
			c0,0.1709-0.0361,0.3301-0.1084,0.4795c-0.0732,0.1484-0.168,0.2842-0.2852,0.4082c-0.1172,0.123-0.249,0.2295-0.3945,0.3184
			c-0.1455,0.0879-0.291,0.1543-0.4365,0.1992v0.0186c0.0313,0,0.0635-0.0029,0.0947-0.0098
			c0.0313-0.0059,0.0664-0.0107,0.1045-0.0137s0.082-0.0049,0.1328-0.0049h0.4561c0.2656,0,0.3984,0.1328,0.3984,0.3984v0.3711
			c0,0.2598-0.1328,0.3887-0.3984,0.3887H30.0503z"/>
		<path stroke="#CCCC66" stroke-width="0.1417" stroke-miterlimit="10" d="M31.6831,157.2471
			c-0.4307-0.1709-0.8057-0.4111-1.125-0.7217c-0.3203-0.3096-0.5703-0.6768-0.75-1.1016
			c-0.1816-0.4238-0.2715-0.8926-0.2715-1.4053s0.0898-0.9805,0.2715-1.4053c0.1797-0.4238,0.4297-0.791,0.75-1.1016
			c0.3193-0.3096,0.6943-0.5508,1.125-0.7217c0.4297-0.1709,0.8926-0.2559,1.3867-0.2559c0.4805,0,0.9297,0.085,1.3477,0.2559
			s0.7822,0.4121,1.0928,0.7217c0.3096,0.3105,0.5537,0.6777,0.7314,1.1016c0.1768,0.4248,0.2656,0.8926,0.2656,1.4053
			s-0.0889,0.9814-0.2656,1.4053c-0.1777,0.4248-0.4219,0.792-0.7314,1.1016c-0.3105,0.3105-0.6748,0.5508-1.0928,0.7217
			c-0.418,0.1719-0.8672,0.2568-1.3477,0.2568C32.5757,157.5039,32.1128,157.4189,31.6831,157.2471z M33.9858,156.0752
			c0.2813-0.1113,0.5273-0.2646,0.7363-0.4609s0.3711-0.4307,0.4883-0.7031c0.1172-0.2715,0.1758-0.5693,0.1758-0.8926
			c0-0.3223-0.0586-0.6201-0.1758-0.8926c-0.1172-0.2715-0.2793-0.5059-0.4883-0.7021s-0.4551-0.3496-0.7363-0.4609
			c-0.2813-0.1104-0.5879-0.166-0.916-0.166c-0.3418,0-0.6602,0.0557-0.9551,0.166c-0.2939,0.1113-0.5488,0.2646-0.7637,0.4609
			c-0.2158,0.1963-0.3848,0.4307-0.5078,0.7021c-0.124,0.2725-0.1855,0.5703-0.1855,0.8926c0,0.3232,0.0615,0.6211,0.1855,0.8926
			c0.123,0.2725,0.292,0.5068,0.5078,0.7031c0.2148,0.1963,0.4697,0.3496,0.7637,0.4609c0.2949,0.1104,0.6133,0.166,0.9551,0.166
			C33.3979,156.2412,33.7046,156.1855,33.9858,156.0752z"/>
		<path stroke="#CCCC66" stroke-width="0.1417" stroke-miterlimit="10" d="M31.3794,149.6211c-0.6592,0-1.1299-0.1494-1.415-0.4502
			s-0.4277-0.7109-0.4277-1.2305c0-0.209,0.0303-0.4014,0.0898-0.5791c0.0605-0.1768,0.1387-0.3389,0.2334-0.4844
			s0.2021-0.2705,0.3232-0.375c0.1191-0.1045,0.2432-0.1855,0.3701-0.2422v-0.0186c-0.0186,0.0059-0.042,0.0088-0.0674,0.0088
			c-0.0176,0.0068-0.041,0.0098-0.0664,0.0098s-0.0527,0-0.085,0h-0.2842c-0.2666,0-0.3994-0.1299-0.3994-0.3896V145.5
			c0-0.2656,0.1328-0.3984,0.3994-0.3984h4.0449c0.2656,0,0.3984,0.1328,0.3984,0.3984v0.4082c0,0.2666-0.1328,0.3994-0.3984,0.3994
			H32.272c-0.2158,0-0.4209,0.0303-0.6172,0.0898c-0.1963,0.0605-0.3701,0.1475-0.5225,0.2617
			c-0.1523,0.1133-0.2725,0.2559-0.3613,0.4268c-0.0879,0.1709-0.1328,0.3643-0.1328,0.5791c0,0.2979,0.0898,0.4971,0.2715,0.5986
			c0.1797,0.1016,0.4189,0.1514,0.7168,0.1514h2.4688c0.2656,0,0.3984,0.1338,0.3984,0.3994v0.4082
			c0,0.2656-0.1328,0.3984-0.3984,0.3984H31.3794z"/>
		<path stroke="#CCCC66" stroke-width="0.1417" stroke-miterlimit="10" d="M31.3794,143.6484c-0.3291,0-0.6064-0.0586-0.8311-0.1758
			s-0.4063-0.2656-0.5459-0.4463s-0.2412-0.3828-0.3037-0.6074c-0.0635-0.2246-0.0957-0.4453-0.0957-0.6602
			c0-0.1641,0.0303-0.2881,0.0908-0.3701c0.0596-0.082,0.1631-0.124,0.3086-0.124h0.2939c0.1328,0,0.2285,0.0303,0.2852,0.0908
			c0.0566,0.0596,0.0918,0.1631,0.1045,0.3086c0.0068,0.082,0.0234,0.1689,0.0518,0.2607c0.0293,0.0918,0.0762,0.1758,0.1426,0.252
			s0.1553,0.1396,0.2656,0.1895c0.1113,0.0508,0.2578,0.0762,0.4414,0.0762h1.8809v-0.7119c0-0.2598,0.1328-0.3896,0.3984-0.3896
			h0.1621c0.2656,0,0.3984,0.1328,0.3984,0.3994v0.7021h0.9883c0.2656,0,0.3984,0.1328,0.3984,0.3994v0.3799
			c0,0.2656-0.1328,0.3984-0.3984,0.3984h-0.9883v0.2754c0,0.2656-0.1328,0.3984-0.3984,0.3984h-0.1621
			c-0.2656,0-0.3984-0.1289-0.3984-0.3887v-0.2568H31.3794z"/>
		<path stroke="#CCCC66" stroke-width="0.1417" stroke-miterlimit="10" d="M29.9927,137.7852
			c-0.0752-0.1172-0.1494-0.2549-0.2178-0.4131c-0.0703-0.1582-0.127-0.335-0.1719-0.5313
			c-0.0439-0.1963-0.0664-0.4121-0.0664-0.6465c0-0.3477,0.0586-0.6709,0.1758-0.9688c0.1172-0.2969,0.2793-0.5537,0.4844-0.7686
			c0.2051-0.2158,0.4492-0.3848,0.7314-0.5078c0.2822-0.124,0.5908-0.1855,0.9258-0.1855c0.3037,0,0.5908,0.0537,0.8594,0.1611
			c0.2686,0.1084,0.5029,0.2627,0.7021,0.4658c0.2002,0.2021,0.3584,0.4512,0.4756,0.7451c0.1162,0.2939,0.1748,0.6289,0.1748,1.002
			c0,0.1074-0.0078,0.2021-0.0234,0.2852c-0.0156,0.082-0.0332,0.1582-0.0518,0.2275c-0.0254,0.0762-0.0508,0.1455-0.0762,0.209
			v0.0186c0.0254-0.0059,0.0537-0.0117,0.085-0.0186c0.0576-0.0059,0.1338-0.0156,0.2285-0.0283l1.1113-0.1045v-2.0889
			c0-0.2666,0.1289-0.3994,0.3887-0.3994h0.2656c0.2666,0,0.3994,0.1328,0.3994,0.3994v2.7725c0,0.2529-0.126,0.3896-0.3799,0.4082
			l-2.6875,0.2471c-0.2344,0.0186-0.3926-0.0791-0.4746-0.2949l-0.0283-0.085c-0.0322-0.0889-0.0439-0.1758-0.0381-0.2607
			c0.0059-0.0859,0.0254-0.1758,0.0566-0.2715c0.0313-0.082,0.0684-0.1895,0.1094-0.3223s0.0625-0.2852,0.0625-0.4561
			c0-0.3857-0.1074-0.707-0.3184-0.9639c-0.2129-0.2568-0.4961-0.3848-0.8496-0.3848c-0.1777,0-0.3379,0.0352-0.4805,0.1045
			c-0.1426,0.0703-0.2627,0.1631-0.3613,0.2803c-0.0977,0.1172-0.1738,0.252-0.2266,0.4033
			c-0.0547,0.1523-0.082,0.3105-0.082,0.4756c0,0.2656,0.0488,0.4922,0.1426,0.6787c0.0957,0.1865,0.1875,0.334,0.2754,0.4414
			c0.1582,0.2275,0.1328,0.4082-0.0762,0.541l-0.2842,0.1904c-0.0947,0.0693-0.1914,0.1016-0.29,0.0947
			c-0.0977-0.0059-0.1816-0.0566-0.252-0.1523C30.1421,138.002,30.0688,137.9023,29.9927,137.7852z"/>
		<path stroke="#CCCC66" stroke-width="0.1417" stroke-miterlimit="10" d="M29.9644,131.085
			c-0.209-0.0693-0.3135-0.2178-0.3135-0.4463v-0.6074c0-0.2285,0.1045-0.377,0.3135-0.4463l5.9727-2.1563
			c0.1396-0.0498,0.25-0.0459,0.332,0.0146c0.083,0.0605,0.124,0.1631,0.124,0.3086v0.4844c0,0.2344-0.1104,0.3799-0.332,0.4365
			l-4.0645,1.3965c-0.1016,0.0313-0.208,0.0635-0.3184,0.0947s-0.2168,0.0605-0.3174,0.085
			c-0.1152,0.0254-0.2324,0.0508-0.3516,0.0762v0.0195c0.1191,0.0313,0.2363,0.0596,0.3516,0.085
			c0.1006,0.0254,0.207,0.0527,0.3174,0.0811s0.2168,0.0586,0.3184,0.0898l4.0645,1.377c0.2217,0.0635,0.332,0.2129,0.332,0.4463
			v0.5039c0,0.1455-0.041,0.248-0.124,0.3086c-0.082,0.0596-0.1924,0.0645-0.332,0.0137L29.9644,131.085z"/>
		<path stroke="#CCCC66" stroke-width="0.1417" stroke-miterlimit="10" d="M29.6987,127.2588
			c-0.1396,0.0439-0.248,0.0361-0.3281-0.0234c-0.0791-0.0605-0.1191-0.1631-0.1191-0.3086v-0.2188
			c0-0.2344,0.1084-0.3828,0.3232-0.4463l6.7139-2.1748c0.1387-0.0439,0.248-0.0361,0.3281,0.0234
			c0.0781,0.0605,0.1182,0.1631,0.1182,0.3086v0.209c0,0.2285-0.1074,0.3799-0.3232,0.4561L29.6987,127.2588z"/>
		<path stroke="#CCCC66" stroke-width="0.1417" stroke-miterlimit="10" d="M31.5874,123.0996
			c-0.4238-0.1777-0.7871-0.418-1.0918-0.7217c-0.3027-0.3037-0.5391-0.6553-0.707-1.0547c-0.168-0.3984-0.252-0.8223-0.252-1.2725
			c0-0.3223,0.04-0.6074,0.1191-0.8545s0.166-0.4521,0.2617-0.6172c0.1133-0.1963,0.2402-0.3643,0.3789-0.5029v-0.0195
			c-0.0127,0.0068-0.0283,0.0098-0.0469,0.0098h-0.1143h-0.1611c-0.0957,0-0.1729-0.0332-0.2324-0.0996
			c-0.0605-0.0664-0.0908-0.1631-0.0908-0.29v-0.2373c0-0.2598,0.1328-0.3887,0.3994-0.3887h2.7539
			c0.2656,0,0.3984,0.1289,0.3984,0.3887v1.3486c0,0.2656-0.1328,0.3984-0.3984,0.3984h-0.2568
			c-0.2666,0-0.3994-0.1328-0.3994-0.3984v-0.6455h-0.75c-0.1387,0.1201-0.2627,0.2627-0.3701,0.4268
			c-0.0947,0.1465-0.1807,0.3252-0.2568,0.5371s-0.1133,0.46-0.1133,0.7451c0,0.3164,0.0586,0.6113,0.1758,0.8828
			c0.1172,0.2725,0.2793,0.5098,0.4883,0.7129c0.209,0.2021,0.4609,0.3623,0.7559,0.4795c0.2939,0.1172,0.6182,0.1758,0.9727,0.1758
			c0.3164,0,0.6172-0.0508,0.9023-0.1523c0.2852-0.1006,0.5332-0.248,0.7461-0.4414c0.2109-0.1934,0.3789-0.4316,0.502-0.7168
			c0.124-0.2852,0.1855-0.6113,0.1855-0.9785c0-0.3604-0.0469-0.6641-0.1426-0.9111c-0.0938-0.2471-0.1865-0.4434-0.2754-0.5889
			c-0.0693-0.1201-0.0957-0.2246-0.0801-0.3135s0.0771-0.168,0.1855-0.2373l0.2656-0.1709c0.2148-0.1396,0.3984-0.1113,0.5508,0.085
			c0.0508,0.0703,0.1104,0.1729,0.1797,0.3086c0.0703,0.1367,0.1387,0.2979,0.2051,0.4844c0.0664,0.1875,0.1211,0.3994,0.166,0.6367
			c0.0439,0.2373,0.0664,0.4951,0.0664,0.7734c0,0.5068-0.0889,0.9717-0.2656,1.3965c-0.1777,0.4238-0.4229,0.791-0.7363,1.1016
			c-0.3135,0.3096-0.6855,0.5518-1.1152,0.7266c-0.4316,0.1738-0.8965,0.2607-1.3965,0.2607
			C32.481,123.3652,32.0122,123.2764,31.5874,123.0996z"/>
		<path stroke="#CCCC66" stroke-width="0.1417" stroke-miterlimit="10" d="M30.0503,115.8066c-0.2666,0-0.3994-0.1299-0.3994-0.3896
			v-0.4365c0-0.2598,0.1328-0.3896,0.3994-0.3896h3.4844c0.1016,0,0.2129,0.0029,0.332,0.0098
			c0.1211,0.0059,0.2344,0.0156,0.3418,0.0283c0.1211,0.0127,0.2441,0.0225,0.3711,0.0283v-0.0186
			c-0.127-0.0576-0.25-0.1211-0.3711-0.1904c-0.1074-0.0508-0.2207-0.1094-0.3418-0.1758c-0.1191-0.0664-0.2305-0.1309-0.332-0.1943
			l-3.6172-2.4023c-0.1777-0.0957-0.2666-0.25-0.2666-0.4658v-0.5127c0-0.2656,0.1328-0.3984,0.3994-0.3984h5.9434
			c0.2666,0,0.3994,0.1328,0.3994,0.3984v0.4277c0,0.2656-0.1328,0.3984-0.3994,0.3984h-3.4941c-0.1016,0-0.2119-0.001-0.332-0.0049
			c-0.1211-0.0029-0.2344-0.0107-0.3418-0.0234c-0.1211-0.0127-0.2441-0.0254-0.3711-0.0381v0.0186
			c0.127,0.0576,0.25,0.1172,0.3711,0.1807c0.1074,0.0508,0.2207,0.1113,0.3418,0.1807c0.1201,0.0693,0.2305,0.1357,0.332,0.1992
			l3.6279,2.3936c0.1768,0.0947,0.2656,0.2529,0.2656,0.4746v0.5127c0,0.2598-0.1328,0.3896-0.3994,0.3896H30.0503z"/>
		<path stroke="#CCCC66" stroke-width="0.1417" stroke-miterlimit="10" d="M30.0503,108.751c-0.2666,0-0.3994-0.1299-0.3994-0.3896
			v-1.9092c0-0.5186,0.0762-0.9902,0.2275-1.415c0.1523-0.4238,0.374-0.7842,0.665-1.082s0.6455-0.5283,1.0635-0.6934
			c0.418-0.1641,0.8926-0.2471,1.4248-0.2471s1.0068,0.083,1.4248,0.2471c0.418,0.165,0.7686,0.3955,1.0537,0.6934
			c0.2842,0.2979,0.5029,0.6582,0.6553,1.082c0.1523,0.4248,0.2275,0.8965,0.2275,1.415v1.9092
			c0,0.2598-0.1328,0.3896-0.3994,0.3896H30.0503z M30.7046,107.5352h4.6348v-1.0166c0-0.335-0.0508-0.6406-0.1523-0.916
			s-0.248-0.5107-0.4414-0.707s-0.4336-0.3486-0.7217-0.4561s-0.6191-0.1611-0.9922-0.1611c-0.7598,0-1.3379,0.2021-1.7334,0.6074
			s-0.5938,0.9492-0.5938,1.6328V107.5352z"/>
	</g>
	<g>
		<g>
			<path fill="#FFFFFF" stroke="#000000" stroke-width="0.8504" stroke-miterlimit="10" d="M137.228,152.9697
				c-2.1426,0.7168-4.2109,1.7207-6.2109,2.6924c-2.418,1.1748-4.918,2.3887-7.5469,3.0889c-3,0.7979-5.4004,1.1553-7.5566,1.1221
				v0.041c-1.2988-0.7715-2.6973-1.4297-4.0176-2.1885c4.9922,0.0781,9.498-2.29,13.8555-4.5898
				c1.3008-0.6855,2.6465-1.3945,3.9844-2.0293c8.1758-3.7471,16.7422-4.0166,23.5234-0.7471
				c-0.0957,1.3613-0.1719,2.7236-0.2578,4.084C147.1948,151.8496,142.0249,151.3662,137.228,152.9697z"/>
			<path fill="#FFFFFF" stroke="#000000" stroke-width="0.8504" stroke-miterlimit="10" d="M140.8569,165.2031
				c-0.6758,0.2715-1.3457,0.5742-1.9922,0.8682c-2.3887,1.0811-4.6445,2.1035-7.293,1.6211
				c-1.6816-0.3057-3.3223-0.7715-4.9102-1.2227c-1.5254-0.4326-3.1016-0.874-4.748-1.1924
				c-0.5098-0.5264-1.0098-1.0645-1.5156-1.5938c0.957,0.1387,1.9277,0.3008,2.9355,0.4717
				c4.7676,0.8076,9.6973,1.6436,14.1973-0.252c4.3789-1.752,9.7832-3.9082,14.9688-3.7744
				c-0.1719,1.2861-0.4336,2.5605-0.9707,3.7314C147.9448,163.5547,143.6558,164.085,140.8569,165.2031z"/>
			<path fill="#FFFFFF" stroke="#000000" stroke-width="0.8504" stroke-miterlimit="10" d="M128.1792,169.0908
				c3.541,0.9453,7.3809,1.6455,11.459,0.375c1.0879-0.3379,2.1797-0.7988,3.2344-1.2451c2.1934-0.9258,4.457-1.8789,6.8574-1.8164
				c-1.418,1.4141-3.2695,2.4473-5.1309,3.249c-3.7695,1.624-7.9609,2.5684-11.998,1.833c-2.7305-0.498-5.2441-1.7461-7.4727-3.3691
				C126.0991,168.4814,127.1167,168.8076,128.1792,169.0908z"/>
			<path fill="#FFFFFF" stroke="#000000" stroke-width="0.8504" stroke-miterlimit="10" d="M146.3745,139.5098
				c-1.1387-0.7393-2.2148-1.4365-3.293-2.0479c-6.2012-3.5195-11.9746,1.4688-16.6133,5.4756
				c-0.4902,0.4219-0.9668,0.835-1.4316,1.2256c-0.4863,0.4092-0.9883,0.8408-1.5039,1.2852
				c-4.5273,3.8955-10.1445,8.7227-16.1875,7.918c-0.623-1.2139-0.9824-2.5596-1.1914-3.9434
				c1.2344,0.0195,2.3594-0.1152,3.4961-0.5703c4.2617-2.5166,7.7324-5.5645,11.4043-8.792c2.2285-1.957,4.5313-3.9805,7.041-5.8936
				c4.9727-3.7891,10.123-1.3877,15.1035,0.9346c1.5313,0.7139,2.9766,1.3877,4.4258,1.8945
				c0.7793,0.2607,1.3477,0.3086,2.0195,0.3447c1.2656,1.8037,2.4688,3.6699,3.2246,5.7363
				c0.0078,0.0215,0.0137,0.0439,0.0215,0.0654C150.6616,142.2813,148.4858,140.8779,146.3745,139.5098z"/>
			<path fill="#FFFFFF" stroke="#000000" stroke-width="0.8504" stroke-miterlimit="10" d="M114.7808,138.8135
				c1.9355-1.3447,3.5918-3.0674,5.1934-4.7334c1.8359-1.9111,3.7363-3.8877,6.0566-5.2822
				c2.6113-1.5674,5.3555-2.0586,8.1602-1.4609c1.0469,0.2236,2.0684,0.5117,3.0586,0.791
				c2.1152,0.5938,4.1172,1.1533,6.3848,1.1621c1.9316,2.5117,3.8633,5.0273,5.6992,7.6104
				c0.0352,0.0488,0.0684,0.0977,0.1035,0.1465c-0.5586-0.0361-1.0645-0.0977-1.7227-0.3164
				c-1.4316-0.502-2.8711-1.1729-4.3965-1.8838c-5.0566-2.3574-10.2852-4.7949-15.3926-0.9033
				c-2.5195,1.9189-4.8262,3.9453-7.0566,5.9053c-3.6621,3.2178-7.123,6.2588-11.3418,8.7529
				c-1.0957,0.4355-2.1953,0.5615-3.4121,0.5391c-0.1445-1.0449-0.209-2.1084-0.2422-3.1514
				c-0.0469-1.4434-0.043-2.9082,0.1348-4.3379C108.8706,141.7676,111.9546,140.7764,114.7808,138.8135z"/>
			<path fill="#FFFFFF" stroke="#000000" stroke-width="0.8504" stroke-miterlimit="10" d="M137.9097,123.6162
				c1.7129,0.9209,3.0703,2.3428,4.3086,3.8633c0.4063,0.501,0.8008,1.0117,1.1914,1.5186c0.002,0.002,0.0039,0.0029,0.0039,0.0049
				c-2.1387-0.042-4.0625-0.5762-6.0879-1.1465c-0.9941-0.2793-2.0215-0.5693-3.0762-0.7949
				c-2.875-0.6133-5.6895-0.1113-8.3633,1.4951c-2.3535,1.4141-4.2656,3.4043-6.1152,5.3281
				c-1.5918,1.6563-3.2363,3.3682-5.1523,4.6982c-2.7676,1.9219-5.7813,2.8945-8.5762,2.7881c0.1406-1,0.3711-1.9814,0.7422-2.9229
				c1.3281-3.3574,4.2598-5.8193,7.3398-7.7051c3.8184-2.3389,7.8223-4.8896,11.8984-6.7061
				C129.7749,122.3643,134.2905,121.6709,137.9097,123.6162z"/>
			<path fill="#FFFFFF" stroke="#000000" stroke-width="0.8504" stroke-miterlimit="10" d="M126.5854,166.7412
				c1.5938,0.4521,3.2422,0.9209,4.9375,1.2285c2.7344,0.4971,5.0273-0.542,7.457-1.6426c0.6445-0.291,1.3105-0.5928,1.9824-0.8623
				c2.7344-1.0938,6.918-1.6152,10.4414-1.333c-0.375,0.7412-0.8574,1.4033-1.416,2.0029
				c-2.5527-0.1416-4.9277,0.8574-7.2246,1.8271c-1.0488,0.4434-2.1328,0.9004-3.209,1.2363
				c-4.0098,1.249-7.8008,0.5557-11.3027-0.3799c-1.3965-0.3721-2.7168-0.8174-3.9492-1.3281
				c-0.0098-0.0078-0.0176-0.0137-0.0273-0.0205c-0.7129-0.5674-1.373-1.1904-2.0117-1.835
				C123.7534,165.9443,125.1909,166.3447,126.5854,166.7412z"/>
			<path fill="#FFFFFF" stroke="#000000" stroke-width="0.8504" stroke-miterlimit="10" d="M124.8901,148.9404
				c2.1484-1.6074,4.3691-3.2686,6.7305-4.7061c2.9688-1.7822,6.3105-2.4912,10.2129-2.1641
				c4.2734,0.5693,8.1973,3.415,11.5879,6.1855c-0.041,0.585-0.0938,1.1816-0.1406,1.8047
				c-6.8418-3.2549-15.4512-2.9736-23.6641,0.791c-1.3457,0.6367-2.6934,1.3486-3.9961,2.0361
				c-4.4082,2.3252-8.9668,4.7275-14,4.5547c-0.0664-0.002-0.1426-0.0068-0.2207-0.0098c-0.2949-0.1816-0.5879-0.3682-0.8711-0.5654
				l0.0625-0.0146C116.1108,155.5107,120.3765,152.3203,124.8901,148.9404z"/>
			<path fill="#FFFFFF" stroke="#000000" stroke-width="0.8504" stroke-miterlimit="10" d="M142.9429,137.7061
				c1.0703,0.6074,2.1426,1.3027,3.2793,2.041c2.1895,1.4189,4.4512,2.876,6.7852,3.7393c0.4922,1.5488,0.5215,2.9531,0.4355,4.4248
				c-3.3848-2.7549-7.293-5.5508-11.5781-6.1211c-3.9707-0.3311-7.3672,0.3896-10.3906,2.2031
				c-2.373,1.4453-4.5996,3.1113-6.752,4.7227c-4.4902,3.3604-8.7324,6.5352-14.1973,7.8633l-0.3125,0.0605
				c-0.7383-0.5439-1.4199-1.1602-1.998-1.9043c-0.2637-0.3379-0.4961-0.6953-0.7031-1.0635
				c6.0879,0.6914,11.6836-4.1211,16.2051-8.0098c0.5156-0.4434,1.0156-0.875,1.502-1.2832
				c0.4668-0.3926,0.9434-0.8057,1.4336-1.2285C131.2241,139.2012,136.9136,134.2852,142.9429,137.7061z"/>
			<g>
				<path fill="#FFFFFF" stroke="#000000" stroke-width="0.8504" stroke-miterlimit="10" d="M152.9819,154.7432
					c-0.041,0.6445-0.0859,1.2881-0.1348,1.9326c-6.8047-1.1787-13.3184,1.2041-18.8574,3.5361
					c-4.332,1.624-11.3242,1.8613-16.6035,0.6865c-0.2637-0.2002-0.5332-0.3955-0.8125-0.5771
					c-0.0898-0.0576-0.1816-0.1133-0.2715-0.1699c2.082-0.0117,4.3945-0.3701,7.2402-1.1279
					c2.6543-0.707,5.168-1.9268,7.5977-3.1074c1.9902-0.9678,4.0508-1.9688,6.1758-2.6787
					C142.0698,151.6475,147.2046,152.1436,152.9819,154.7432z"/>
			</g>
			<path fill="#FFFFFF" stroke="#000000" stroke-width="0.8504" stroke-miterlimit="10" d="M152.6382,158.957
				c-0.0313,0.2969-0.0664,0.5947-0.1035,0.8906c-5.25-0.1426-10.6973,2.0313-15.1094,3.7949
				c-4.4297,1.8652-9.3164,1.0361-14.0449,0.2344c-1.0879-0.1836-2.2031-0.3711-3.2988-0.5234
				c-0.7012-0.7266-1.4238-1.4297-2.207-2.0713c5.2578,1.0527,11.9863,0.7783,16.2188-0.8086
				c5.5156-2.3223,11.959-4.6992,18.6973-3.5225v-0.001c0.0117,0.002,0.0234,0.0039,0.0352,0.0068
				C152.771,157.624,152.7104,158.291,152.6382,158.957z"/>
		</g>
		<g>
			<path fill="#FFFFFF" stroke="#000000" stroke-width="0.8504" stroke-miterlimit="10" d="M158.2905,98.2695
				c0.2305-0.5293,0.4121-1.0859,0.5898-1.623c0.2266-0.6895,0.459-1.4014,0.793-2.0518c0.877-1.7148,3.1367-2.7217,5.4375-3.043
				c0.3066,0.3164,0.6719,0.6582,1.0215,1.0195c-0.8691,0.4697-1.7168,0.9951-2.4551,1.6738
				c-1.2305,1.1348-1.9199,2.5586-1.9023,3.9297c0.0078,0.3604,0.0605,0.7256,0.1133,1.0781
				c0.0996,0.6777,0.1953,1.3164-0.0234,1.916c-0.0996,0.2725-0.2539,0.5088-0.4492,0.7139
				c-0.584-0.0479-1.166-0.1689-1.7148-0.3438c-0.9727-0.3066-1.9922-0.6758-2.9902-1.0977
				C157.521,99.8076,158.0269,98.8799,158.2905,98.2695z"/>
			<path fill="#FFFFFF" stroke="#000000" stroke-width="0.8504" stroke-miterlimit="10" d="M162.1284,101.2646
				c0.2441-0.665,0.1387-1.3711,0.0391-2.0518c-0.0527-0.3447-0.1035-0.7002-0.1094-1.042c-0.002-0.0205-0.002-0.041-0.002-0.0615
				c0-1.2637,0.6582-2.5938,1.8125-3.6572c0.7324-0.6748,1.5859-1.1982,2.4629-1.667c0.3945,0.4316,0.7402,0.8906,0.8926,1.3711
				c0.3887,1.2236-0.4102,2.5156-0.7266,3.665c-0.3379,1.2197-0.8086,2.4531-1.8418,3.2529
				c-0.8203,0.6348-1.8496,0.8604-2.8984,0.8291C161.9097,101.7129,162.0405,101.5059,162.1284,101.2646z"/>
			<path fill="#FFFFFF" stroke="#000000" stroke-width="0.8504" stroke-miterlimit="10" d="M156.7983,94.0928
				c0.3223-0.5039,0.6543-1.0234,0.9922-1.5166c0.5391-0.7891,1.1504-1.5869,1.9805-2.0791c0.75-0.4443,1.6406-0.6172,2.502-0.7832
				c0.2793-0.0537,0.5586-0.1074,0.834-0.1699c0.623,0.5596,1.207,1.1611,1.7676,1.7607c-2.3125,0.3643-4.5566,1.4121-5.4512,3.1611
				c-0.3438,0.6709-0.582,1.3936-0.8105,2.0928c-0.1738,0.5313-0.3555,1.0811-0.5801,1.5986
				c-0.2656,0.6133-0.7852,1.5654-1.623,2.1572c-1.0957-0.4766-2.1582-1.0234-3.1016-1.6367
				c-0.0371-0.0244-0.0703-0.0508-0.1074-0.0742C154.6772,97.4014,155.7534,95.7256,156.7983,94.0928z"/>
			<path fill="#FFFFFF" stroke="#000000" stroke-width="0.8504" stroke-miterlimit="10" d="M150.978,95.9971
				c0.7969-0.3916,1.3633-0.7979,1.7852-1.2822c0.4727-0.542,0.7754-1.2041,1.0684-1.8428
				c0.0781-0.1709,0.1563-0.3418,0.2383-0.5107c1.0332-2.1416,2.6797-3.9951,4.6719-5.2979
				c0.0625,0.0146,0.123,0.0234,0.1836,0.0391c1.4844,0.3828,2.7637,1.2139,3.916,2.208c-0.207,0.0439-0.4141,0.0869-0.623,0.127
				c-0.8848,0.1709-1.7988,0.3467-2.5918,0.8174c-0.875,0.5195-1.5117,1.3477-2.0684,2.1631
				c-0.3398,0.4961-0.6738,1.0186-0.9961,1.5225c-1.0469,1.6357-2.125,3.3174-3.6016,4.4951
				c-0.9609-0.6836-1.707-1.4746-2.1914-2.3477C150.8394,96.0566,150.9097,96.0303,150.978,95.9971z"/>
			<path fill="#FFFFFF" stroke="#000000" stroke-width="0.8504" stroke-miterlimit="10" d="M153.8159,92.2383
				c-0.082,0.1709-0.1621,0.3438-0.2402,0.5176c-0.2852,0.6201-0.5781,1.2627-1.0254,1.7744
				c-0.3965,0.4531-0.9355,0.8398-1.6953,1.2139c-0.0684,0.0332-0.1406,0.0596-0.2109,0.0928
				c-0.7813-1.6025-0.709-3.4531,0.4863-5.3789c0.1152-0.1836,0.2324-0.3662,0.3574-0.543c0.498-0.7207,1.0801-1.3857,1.7969-1.916
				c1.3496-1,3.1699-1.3623,5.0625-1.0166C156.4194,88.3018,154.8296,90.1377,153.8159,92.2383z"/>
		</g>
		<g>
			<path fill="#FFFFFF" stroke="#000000" stroke-width="0.8504" stroke-miterlimit="10" d="M116.4604,102.8301
				c-1.6934-0.7725-3.4629-1.6396-4.8359-2.998c-1.3379-1.3232-2.2813-3.1787-2.8066-5.5146
				c-0.4941-2.2051-0.6211-4.9951-0.3398-7.0801c2.5879,0.9941,5.1875,1.9541,7.7383,3.0527
				c-0.0078,0.126-0.0195,0.252-0.0254,0.377c-0.2129,3.7783,0.8613,6.8125,3.1992,9.0273
				c0.6191,0.5869,1.3164,1.1582,2.0547,1.7646c1.7012,1.3945,3.4512,2.8311,4.4492,4.6074
				c0.0293,1.4297-0.0352,2.8623-0.2168,4.2725C123.7065,106.5264,119.7534,104.332,116.4604,102.8301z"/>
			<path fill="#FFFFFF" stroke="#000000" stroke-width="0.8504" stroke-miterlimit="10" d="M121.6245,101.2402
				c-0.7344-0.6016-1.4277-1.1709-2.041-1.751c-2.3281-2.2061-3.3691-5.2539-3.0918-9.082c0.0156,0.0078,0.0293,0.0137,0.043,0.0195
				c1.2773,0.5566,2.5586,1.1465,3.7207,1.9053c-0.0469,0.0107-0.0938,0.0195-0.1367,0.043
				c-0.4648,0.2432-0.6074,1.0859-0.6367,1.6172c-0.0078,0.1299-0.0098,0.2422-0.0059,0.3213
				c0.0488,1.2061,0.4238,2.375,1.084,3.3799c0.707,1.0791,1.7539,1.8105,2.7637,2.5156c0.7969,0.5566,1.6113,1.1299,2.252,1.8711
				c0.0547,0.3828,0.1016,0.7656,0.1406,1.1475c0.0762,0.75,0.1289,1.5059,0.1582,2.2646
				C124.8296,103.8711,123.2065,102.5381,121.6245,101.2402z"/>
			<path fill="#FFFFFF" stroke="#000000" stroke-width="0.8504" stroke-miterlimit="10" d="M98.2378,89.4688
				c0.8203,6.7021,1.75,14.2979,7.0449,15.875c1.1094,0.3691,2.373,0.7021,3.707,1.0557c4.4375,1.1719,9.4668,2.501,12.041,5.9092
				c1.207,1.4941,1.9473,3.1963,2.584,4.9014c-0.0254,0.0469-0.0449,0.0938-0.0684,0.1387
				c-0.7969,1.5137-1.8047,2.8857-2.957,4.1299c-0.8262-2.1113-2.1348-4.1934-3.9023-6.2021l-0.1973-0.2256
				c-1.2695-1.4443-2.4668-2.8076-4.1113-3.8174c-1.6211-0.9961-3.5293-1.7402-5.8359-2.2754
				c-1.3242-0.3066-2.6875-0.5303-4.0059-0.748c-1.748-0.2871-3.5566-0.584-5.2852-1.0791
				c-2.4668-0.7051-5.8008-2.1631-7.6738-5.1055c-0.877-1.375-1.4531-3.0986-1.8164-5.4238
				c-0.1172-0.7578-0.209-1.5332-0.2969-2.2822c-0.1367-1.166-0.2793-2.3711-0.5234-3.541
				c-0.2285-1.0908-0.5195-2.0439-0.877-2.8682c1.5059-0.5313,3.0137-1.0508,4.5313-1.543
				c2.2793-0.7402,4.5996-1.4277,6.9746-1.6943C97.8296,86.1445,98.0308,87.7725,98.2378,89.4688z"/>
			<path fill="#FFFFFF" stroke="#000000" stroke-width="0.8504" stroke-miterlimit="10" d="M123.4858,99.9785
				c-0.9902-0.6914-2.0117-1.4053-2.6914-2.4385c-0.6309-0.9639-0.9902-2.083-1.0371-3.2383
				c-0.0195-0.4844,0.1035-1.4746,0.4922-1.6777c0.1543-0.0811,0.3574-0.0264,0.6055,0.1611l0.0176-0.0225
				c0.3574,0.2656,0.7031,0.5488,1.0254,0.8604c2.1328,2.0654,3.127,4.9932,3.6016,7.96
				C124.8921,100.9668,124.1831,100.4658,123.4858,99.9785z"/>
			<path fill="#FFFFFF" stroke="#000000" stroke-width="0.8504" stroke-miterlimit="10" d="M108.0776,88.4404
				c-0.1074,1.9043,0.0586,4.1211,0.4648,5.9385c0.5371,2.3906,1.5078,4.293,2.8848,5.6533
				c1.4063,1.3906,3.1992,2.2715,4.916,3.0547c3.3555,1.5293,7.4023,3.792,9.2617,7.7578c-0.3125,2.0898-0.8945,4.124-1.8203,6.0186
				c-0.623-1.6426-1.3594-3.2773-2.5313-4.7275c-2.6328-3.4824-7.7109-4.8242-12.1914-6.0088
				c-1.332-0.3506-2.5879-0.6846-3.6953-1.0527c-5.1211-1.5254-6.0391-9.0234-6.8496-15.6387
				c-0.207-1.6982-0.4082-3.3252-0.668-4.792c0.3086-0.0303,0.6191-0.0557,0.9297-0.0703c0.125-0.0068,0.2461-0.0068,0.3691-0.0088
				c0.9531,0.0469,1.9121,0.1396,2.8965,0.334c0.125,0.0254,0.252,0.0527,0.377,0.0791c1.5273,0.4043,2.959,1.0488,4.5781,1.6846
				c0.4023,0.1592,0.8047,0.3154,1.209,0.4707C108.1499,87.5459,108.103,87.9814,108.0776,88.4404z"/>
			<path fill="#FFFFFF" stroke="#000000" stroke-width="0.8504" stroke-miterlimit="10" d="M97.7495,121.2148
				c2.6016-1.7275,5.5508-3.6846,8.2559-1.1758c2.3652,2.1943,3.4297,5.6025,4.0703,8.4678c-1.25,0.625-2.4785,1.2881-3.6289,2.0898
				c-0.3242-1.9121-0.832-3.8887-2.6465-4.7881c-3.2109-1.2725-6.2832,0.0537-9.2559,1.3369
				c-1.543,0.667-3.1387,1.3555-4.7227,1.6631c-1.8438,0.376-4.4922,0.666-6.1934-1.1465c-0.4902-0.5537-0.9746-1.126-1.4883-1.7324
				c-3.1777-3.75-6.7715-7.9922-12.2305-7.626c-0.4434-1.8242-0.8594-3.6631-1.2148-5.498
				c4.1816,0.4902,8.418,1.4111,11.3945,4.4941c0.5469,0.5674,1.0801,1.1895,1.5957,1.791
				c1.6973,1.9824,3.4531,4.0313,6.1563,4.6914c2.9219,0.7129,6.1582-0.0859,9.6211-2.376L97.7495,121.2148z"/>
			<path fill="#FFFFFF" stroke="#000000" stroke-width="0.8504" stroke-miterlimit="10" d="M81.1226,132.6328
				c0.3652,0.209,0.7324,0.4199,1.1074,0.6299c1.8086,1.0107,3.9004,1.4883,6.0527,1.3809c0.75-0.0381,1.5098-0.1367,2.2422-0.2324
				c1.2715-0.165,2.5879-0.3369,3.877-0.1885c1.8145,0.208,3.3613,1.1699,4.7207,2.9355c-0.9121,0.6836-1.8887,1.2695-2.9844,1.6797
				c-3.3867,1.2646-7.168,0.5186-10.6504-0.4531c-2.8926-0.8047-5.8145-1.793-8.1484-3.6816
				c-1.668-1.3506-2.9336-3.0791-3.9121-4.9902C76.4019,129.9355,78.7026,131.249,81.1226,132.6328z"/>
			<path fill="#FFFFFF" stroke="#000000" stroke-width="0.8504" stroke-miterlimit="10" d="M86.6655,90.8359
				c0.2422,1.1572,0.3828,2.3564,0.5195,3.5156c0.0879,0.752,0.1797,1.5313,0.2988,2.293c0.3691,2.3652,0.959,4.123,1.8555,5.5322
				c1.9219,3.0166,5.3203,4.5068,7.834,5.2256c1.7441,0.498,3.5625,0.7969,5.3184,1.0869c1.3145,0.2148,2.6719,0.4385,3.9883,0.7432
				c2.2754,0.5273,4.1563,1.2607,5.752,2.2402c1.6074,0.9883,2.793,2.3369,4.0469,3.7637l0.1973,0.2256
				c1.7813,2.0244,3.0879,4.123,3.8984,6.2461c-0.7559,0.7949-1.5723,1.5322-2.4297,2.2188
				c-0.0742-0.1797-0.1387-0.3643-0.1992-0.5479c-0.0957-0.2969-0.1875-0.5781-0.3262-0.8184
				c-2.7715-4.5283-7.123-8.3936-11.9434-10.6074c-2.4121-0.8691-5.041-0.6006-7.584-0.3398
				c-2.2051,0.2266-4.4883,0.46-6.5313-0.085c-2.9473-0.8594-6.2617-4.7402-9.1836-8.1641
				c-1.3984-1.6387-2.7188-3.1846-3.8086-4.1523c-2.334-2.0723-5.209-2.8281-8.1426-2.9805
				c0.416-0.6113,0.8828-1.1895,1.4219-1.7158c1.6387-1.5996,3.7129-2.6221,5.8574-3.4775c0.7051-0.2813,1.4199-0.5439,2.127-0.8037
				c2.0508-0.7529,4.1035-1.5029,6.1641-2.2314C86.1499,88.8135,86.439,89.7549,86.6655,90.8359z"/>
			<path fill="#FFFFFF" stroke="#000000" stroke-width="0.8504" stroke-miterlimit="10" d="M78.1812,99.4229
				c1.0762,0.9551,2.3906,2.4941,3.7813,4.123c2.9492,3.4551,6.291,7.3691,9.3242,8.2549c2.0957,0.5576,4.4023,0.3213,6.6348,0.0928
				c2.5117-0.2578,5.1074-0.5244,7.4492,0.3193c4.7578,2.1885,9.0664,6.0127,11.8066,10.4912
				c0.123,0.2119,0.209,0.4795,0.3027,0.7617c0.0664,0.208,0.1426,0.4277,0.2344,0.6436c-0.5234,0.4111-1.0625,0.8027-1.6133,1.1748
				c-1.1563,0.7832-2.3848,1.4297-3.6289,2.0469c0.0977-5.1357-1.8906-7.8818-6.7402-9.3799
				c-3.9668-1.3203-8.9395-0.9297-13.3262-0.585c-0.918,0.0713-1.7871,0.1396-2.6074,0.1885
				c-1.2266,0.0732-2.6621-0.4463-4.3867-1.5869c-0.5176-0.4629-1.0527-0.9473-1.5898-1.4346
				c-4.7109-4.2627-9.582-8.665-16.0352-8.5215c-0.1074-3.3486,0.5078-6.7764,2.2539-9.5068
				C72.978,96.6367,75.8608,97.3623,78.1812,99.4229z"/>
			<path fill="#FFFFFF" stroke="#000000" stroke-width="0.8504" stroke-miterlimit="10" d="M83.6323,114.7422
				c0.5371,0.4873,1.0742,0.9727,1.6094,1.4473c1.793,1.1885,3.2832,1.7227,4.5742,1.6465
				c0.8223-0.0488,1.6914-0.1182,2.6113-0.1885c4.3613-0.3438,9.3027-0.7314,13.2188,0.5713
				c4.752,1.4678,6.6719,4.1738,6.541,9.2539c-0.6172,0.3027-1.2363,0.6016-1.8516,0.9063
				c-0.6523-2.8926-1.7363-6.3164-4.1387-8.5459c-2.8672-2.6602-6.0488-0.5488-8.6035,1.1484l-0.2871,0.1895
				c-3.3945,2.2451-6.5566,3.0313-9.3984,2.3379c-2.6152-0.6387-4.3398-2.6533-6.0098-4.6006
				c-0.5176-0.6055-1.0527-1.2295-1.6055-1.8037c-3.0586-3.168-7.3926-4.0957-11.6543-4.5889
				c-0.2871-1.5078-0.5352-3.0107-0.707-4.5c-0.0664-0.5684-0.1094-1.1436-0.1367-1.7217
				C74.1382,106.1543,78.9624,110.5176,83.6323,114.7422z"/>
			<path fill="#FFFFFF" stroke="#000000" stroke-width="0.8504" stroke-miterlimit="10" d="M94.4331,133.9424
				c-1.3223-0.1523-2.6563,0.0215-3.9434,0.1895c-0.7285,0.0957-1.4824,0.1934-2.2207,0.2305
				c-2.0996,0.1055-4.1406-0.3604-5.9004-1.3457c-0.375-0.209-0.7422-0.4189-1.1055-0.627
				c-2.4941-1.4277-4.8652-2.7793-7.9785-2.9678c-0.6699-1.3584-1.1992-2.7988-1.627-4.2588
				c2.7051,0.376,4.7656,1.9707,6.9395,3.6592c1.2891,1.001,2.623,2.0361,4.1484,2.8545c3.043,1.6904,5.9102,0.7002,8.9453-0.3477
				c0.5664-0.1963,1.1504-0.3984,1.7383-0.582c3.5898-0.7715,7.0547,0.7256,8.75,3.6738c-0.9082,0.9033-1.8301,1.7939-2.8301,2.5693
				C97.9409,135.1602,96.3296,134.1611,94.4331,133.9424z"/>
			<path fill="#FFFFFF" stroke="#000000" stroke-width="0.8504" stroke-miterlimit="10" d="M81.9253,126.1123
				c0.5137,0.6074,1,1.1807,1.4941,1.7393c1.8027,1.918,4.5488,1.6221,6.457,1.2334c1.6133-0.3135,3.2227-1.0078,4.7793-1.6807
				c2.9199-1.2607,5.9395-2.5635,9.0293-1.3389c1.7324,0.8584,2.1836,2.7617,2.5059,4.7129
				c-0.2832,0.2041-0.5625,0.4141-0.834,0.6396c-1.0371,0.8555-2,1.8311-2.9727,2.7988c-1.7695-3.0127-5.3281-4.5361-9.0273-3.7412
				c-0.6035,0.1875-1.1895,0.3906-1.7559,0.5859c-2.9766,1.0273-5.7871,1.999-8.7207,0.3682
				c-1.5059-0.8086-2.8301-1.8369-4.1113-2.8301c-2.2363-1.7373-4.3555-3.377-7.1953-3.7314c-0.1074-0.374-0.209-0.749-0.3027-1.123
				c-0.4258-1.6963-0.8672-3.4238-1.293-5.1631C75.269,118.2568,78.8022,122.4248,81.9253,126.1123z"/>
		</g>
		<g>
			<path fill="#FFFFFF" stroke="#000000" stroke-width="0.8504" stroke-miterlimit="10" d="M153.48,190.5684
				c-2.0664-3.7822-3.7246-7.7988-4.9277-11.9375c-0.0117-0.043-0.0195-0.082-0.0313-0.125
				c0.0605,0.0244,0.1191,0.0488,0.1797,0.0723c1.6563,0.6416,3.3145,1.2734,4.8555,2.1523
				c0.9629,3.7061,2.9902,7.1377,5.8301,9.7021c-0.3145,1.2607-1.0605,2.3203-1.9277,3.3691
				c-0.3066,0.3701-0.625,0.7314-0.9492,1.0889C155.2534,193.6367,154.3101,192.0889,153.48,190.5684z"/>
			<path fill="#FFFFFF" stroke="#000000" stroke-width="0.8504" stroke-miterlimit="10" d="M146.4546,197.3213
				c-0.709-1.6992-1.2441-3.5-1.7598-5.2402c-0.3125-1.0566-0.6348-2.1475-0.9961-3.209c-1.7012-5.0156-4.375-9.7539-7.7832-13.8232
				c0.1367-0.0596,0.2773-0.1133,0.4219-0.1572c1.2441-0.3857,2.6016-0.1113,3.8262,0.3418c1.3789,0.5098,2.75,1.0498,4.1211,1.5947
				c0.3574,8.1689,3.4512,16.248,8.6445,22.5664c-0.7266,1.2227-1.3809,2.4971-2.3066,3.5723
				c-0.0664,0.0752-0.1328,0.1465-0.1992,0.2178C148.8354,201.7988,147.5034,199.8359,146.4546,197.3213z"/>
			<path fill="#FFFFFF" stroke="#000000" stroke-width="0.8504" stroke-miterlimit="10" d="M144.5698,176.9414
				c1.207,0.4814,2.416,0.9639,3.627,1.4375c0.0273,0.1094,0.0527,0.2178,0.0859,0.3311c1.209,4.1582,2.873,8.1924,4.9492,11.9932
				c0.8438,1.5439,1.8047,3.1172,3.0879,4.3965c-0.9238,1.0146-1.873,2.0107-2.6582,3.1406
				c-0.2031,0.2939-0.3926,0.5947-0.5781,0.8994C147.9937,192.9111,144.9487,184.9746,144.5698,176.9414z"/>
			<path fill="#FFFFFF" stroke="#000000" stroke-width="0.8504" stroke-miterlimit="10" d="M153.9019,180.9277
				c0.2402,0.1455,0.4805,0.2969,0.7148,0.458c1.5508,1.0615,2.9219,2.4199,3.8535,4.0547c0.584,1.0225,0.9922,2.1631,1.0625,3.3359
				c0.0078,0.1074,0.0117,0.2168,0.0117,0.3252c0.002,0.3535-0.0293,0.6914-0.0898,1.0146
				C156.7866,187.6641,154.8608,184.4258,153.9019,180.9277z"/>
			<path fill="#FFFFFF" stroke="#000000" stroke-width="0.8504" stroke-miterlimit="10" d="M143.4331,188.9619
				c0.3574,1.0557,0.6816,2.1455,0.9922,3.1992c0.5195,1.748,1.0547,3.5547,1.7695,5.2686c1.0645,2.5508,2.418,4.5459,4.0352,5.96
				c-1.2715,1.2969-2.8574,2.1074-4.5762,2.542c-1.9805-1.7549-3.5781-4.3223-4.8477-7.79
				c-0.5254-1.4316-0.9727-2.9209-1.4023-4.3623c-0.6641-2.2109-1.3496-4.498-2.332-6.6318
				c-0.9375-2.0283-2.8828-5.3467-6.1289-7.1357c0.6914-1.0518,1.5391-1.999,2.4023-2.915c0.6895-0.7305,1.4277-1.4639,2.3086-1.918
				C139.064,179.2334,141.7358,183.958,143.4331,188.9619z"/>
			<path fill="#FFFFFF" stroke="#000000" stroke-width="0.8504" stroke-miterlimit="10" d="M136.8159,187.2646
				c0.9746,2.1172,1.6582,4.3936,2.3164,6.5957c0.4336,1.4443,0.8809,2.9385,1.4082,4.3779
				c1.2559,3.4258,2.8301,5.9902,4.7754,7.7725c-2.3398,0.5215-4.8984,0.3711-7.2324-0.1797
				c-1.25-1.8076-1.6699-4.0293-2.1094-6.3652c-0.4277-2.2637-0.8672-4.6045-2.1465-6.5156
				c-0.6738-1.0088-1.5449-1.8428-2.4785-2.5879c-0.4063-1.5996-1.3535-3.0322-1.7422-4.6426
				c-0.4199-1.7344,0.0684-3.5205,0.9277-5.0449c0.082-0.1445,0.168-0.2861,0.2559-0.4268
				C133.978,181.9961,135.894,185.2676,136.8159,187.2646z"/>
			<path fill="#FFFFFF" stroke="#000000" stroke-width="0.8504" stroke-miterlimit="10" d="M133.5952,193.1064
				c1.2441,1.8633,1.6797,4.1758,2.1016,6.4111c0.4063,2.1631,0.8281,4.3867,1.9883,6.2158
				c-0.5605-0.1455-1.1074-0.3105-1.6309-0.4971c-1.3672-0.4844-2.7129-1.1699-4.0215-1.8066
				c-0.0156-1.0176-0.0723-2.0449-0.2637-3.0537c-0.2832-1.501-0.8555-2.7852-1.6563-3.7471
				c0.7402-1.7539,1.6191-3.4678,1.3906-5.4434c-0.0137-0.127-0.0332-0.2529-0.0566-0.377
				C132.2573,191.4795,133.0054,192.2256,133.5952,193.1064z"/>
			<path fill="#FFFFFF" stroke="#000000" stroke-width="0.8504" stroke-miterlimit="10" d="M131.4917,200.4287
				c0.1777,0.9385,0.2363,1.8994,0.2559,2.8555c-0.9043-0.4746-1.7578-1.1182-2.1758-2.043
				c-0.459-1.0127-0.3242-2.2012,0.0215-3.2559c0.1172-0.3594,0.2539-0.7129,0.3984-1.0645
				C130.7144,197.832,131.23,199.0342,131.4917,200.4287z"/>
		</g>
		<path fill="#FFFFFF" stroke="#000000" stroke-width="0.8504" stroke-miterlimit="10" d="M85.228,147.7734
			c-0.0527-0.0439-0.1035-0.0869-0.1563-0.1318C85.1245,147.6855,85.1753,147.7295,85.228,147.7734z"/>
		<path fill="#FFFFFF" stroke="#000000" stroke-width="0.8504" stroke-miterlimit="10" d="M86.2222,148.6455
			c-0.3301-0.293-0.6602-0.585-0.9941-0.8721C85.5796,148.0732,85.9116,148.3652,86.2222,148.6455z"/>
		<path fill="#FFFFFF" stroke="#000000" stroke-width="0.8504" stroke-miterlimit="10" d="M85.0112,147.5898
			c0.0215,0.0176,0.0391,0.0342,0.0605,0.0518c-0.0371-0.0303-0.0742-0.0615-0.1113-0.0918
			C84.978,147.5635,84.9937,147.5762,85.0112,147.5898z"/>
		<g>
			<path fill="#FFFFFF" stroke="#000000" stroke-width="0.8504" stroke-miterlimit="10" d="M79.7983,173.2959
				c1.7715-0.3867,3.5547-0.8799,5.2773-1.3584c3.6992-1.0264,7.5254-2.0859,11.4023-2.125
				c2.4141-0.0244,4.8477,0.3545,6.9121,0.7285c4.0586,0.7363,8.1152,1.7256,12.0586,2.9434
				c2.4023,0.7412,5.1113,1.7031,6.8359,3.7373c1.0234,1.208,1.6367,2.7197,2.1465,4.1738
				c0.6582,1.8789,1.1973,3.8125,1.6211,5.7627c-0.209,1.6201-0.6895,3.2266-1.5469,4.8057
				c-0.6348,1.1729-1.375,2.165-2.1992,3.0117c-0.1543-1.0557-0.2441-2.0664-0.332-3.043c-0.166-1.8857-0.3223-3.666-0.9121-5.625
				c-0.5332-1.7754-1.2207-3.7949-2.6289-5.3008c-1.6816-1.7969-4.1602-2.5752-5.8809-3.0039
				c-2.5996-0.6484-5.2754-0.9551-7.9551-0.9092c-4.9316,0.083-9.7891,1.3623-14.4863,2.5996
				c-3.5605,0.9365-7.2402,1.9053-10.9336,2.3506c-9.6914,1.165-19.3242-1.2344-27.9297-4.3057
				c-1.0449-2.4561-1.7461-5.126-1.9707-7.7363C58.7515,174.3066,69.6226,175.5186,79.7983,173.2959z"/>
			<path fill="#FFFFFF" stroke="#000000" stroke-width="0.8504" stroke-miterlimit="10" d="M76.9507,185.8477
				c6.6621-1.5391,13.5527-3.1299,20.6582-4.2236c2.8105-0.4688,5.6816,0.0098,8.4551,0.4727
				c6.9277,2.4756,12.4785,8.1309,14.2988,14.5166c-0.4023,0.2793-0.8184,0.5381-1.248,0.7754
				c-3.5156-3.0283-12.1719-9.751-19.4297-9.4756c-3.6191,0.1387-7.2539,0.6572-10.7695,1.1582
				c-4.1953,0.6006-8.5332,1.2197-12.8535,1.1885c-2.2188-0.0146-4.4727-0.1377-6.6543-0.2568
				c-1.2637-0.0693-2.5547-0.1367-3.8477-0.1875c-0.8516-0.3105-1.7109-0.6123-2.5625-0.9287
				C67.7065,187.9756,72.4019,186.8984,76.9507,185.8477z"/>
			<path fill="#FFFFFF" stroke="#000000" stroke-width="0.8504" stroke-miterlimit="10" d="M79.2104,182.3223
				c3.7129-0.4463,7.4023-1.418,10.9727-2.3574c4.6797-1.2324,9.5215-2.5068,14.418-2.5889
				c2.6563-0.0449,5.3086,0.2578,7.8848,0.9004c1.6836,0.4199,4.1113,1.1797,5.7422,2.9238c1.3672,1.46,2.041,3.4434,2.5645,5.1885
				c0.582,1.9316,0.7383,3.6973,0.9023,5.5693c0.0898,1.0313,0.1855,2.0996,0.3555,3.2236l0.0059,0.0391
				c-0.459,0.4482-0.9434,0.8535-1.4512,1.2217c-1.873-6.4336-7.4707-12.1172-14.4707-14.6172
				c-2.8203-0.4727-5.7148-0.9551-8.5703-0.4785c-7.1133,1.0938-14.0098,2.6865-20.6758,4.2256
				c-4.6914,1.084-9.5352,2.1992-14.3887,3.127c-1.9102-0.7295-3.7617-1.5664-5.373-2.8105
				c-2.2949-1.7754-4.3008-4.5879-5.7246-7.7979C59.9761,181.1328,69.5581,183.4844,79.2104,182.3223z"/>
			<path fill="#FFFFFF" stroke="#000000" stroke-width="0.8504" stroke-miterlimit="10" d="M85.6909,201.3438
				c-0.7832-0.541-1.5527-1.1152-2.3066-1.6836c6.3965-0.4199,12.8789,0.2637,19.0605,1.9854
				c-1.8613,0.4502-3.709,0.9629-5.5371,1.541c-0.3184,0.1006-0.6387,0.2031-0.9609,0.3027
				C92.7534,202.0234,89.2026,201.2813,85.6909,201.3438z"/>
			<path fill="#FFFFFF" stroke="#000000" stroke-width="0.8504" stroke-miterlimit="10" d="M69.394,190.2842
				c2.1836,0.1182,4.4414,0.2422,6.668,0.2578c4.3398,0.0303,8.6875-0.5908,12.8926-1.1914c3.5098-0.5,7.1367-1.0186,10.7422-1.1543
				c7.1016-0.2705,15.6094,6.293,19.1543,9.334c-1.0996,0.582-2.2695,1.041-3.4883,1.416c-4.1172-1.5-8.5059-3.0098-13.0254-3.6895
				c-2.5273-0.3789-5.1152-0.5039-7.6152-0.624l-20.7578-0.9941c-2.4434-1.3232-4.9512-2.5195-7.5508-3.5068l-0.002-0.001
				C67.4136,190.1758,68.4116,190.2305,69.394,190.2842z"/>
			<path fill="#FFFFFF" stroke="#000000" stroke-width="0.8504" stroke-miterlimit="10" d="M94.7065,194.915
				c2.4961,0.1191,5.0762,0.2432,7.5879,0.6211c4.3652,0.6553,8.6133,2.0918,12.6133,3.5449
				c-1.9766,0.5703-4.0684,0.9463-6.1777,1.3008c-9.2207-3.0098-18.9785-4.0547-28.6094-3.0918
				c-0.0684-0.0439-0.1367-0.0928-0.2051-0.1348c-1.7617-1.1201-3.5547-2.1973-5.3848-3.207L94.7065,194.915z"/>
			<path fill="#FFFFFF" stroke="#000000" stroke-width="0.8504" stroke-miterlimit="10" d="M80.4917,197.5352
				c9.3027-0.8828,18.7148,0.1123,27.6387,2.9482c-1.7188,0.2891-3.4258,0.6338-5.1211,1.0313
				c-6.4629-1.8623-13.2617-2.5879-19.9609-2.1094C82.1694,198.7402,81.3159,198.0947,80.4917,197.5352z"/>
			<path fill="#FFFFFF" stroke="#000000" stroke-width="0.8504" stroke-miterlimit="10" d="M95.5308,203.6133
				c-1.25,0.3672-2.5234,0.6406-3.8047,0.4707c-1.9238-0.2539-3.8125-1.249-5.6289-2.4639
				C89.3276,201.6201,92.5757,202.3086,95.5308,203.6133z"/>
			<path fill="#FFFFFF" stroke="#000000" stroke-width="0.8504" stroke-miterlimit="10" d="M64.2925,152.9287
				c1.5781,0.8848,3.2656,1.5342,4.8398,2.0732c8.9941,3.0771,18.6133,4.2217,28.0723,3.376
				c1.125,0.834,2.2344,1.6133,3.3145,2.3408c-3.2539-0.1104-6.5449,0.2871-9.7637,0.6836
				c-2.9785,0.3643-6.0586,0.7422-9.0723,0.7119c-4.4121-0.0439-8.8047-0.9639-13.0508-1.8535
				c-2.9844-0.624-6.3652-1.333-9.0098-3.2402c-0.7813-0.5625-1.5078-1.2373-2.209-1.9023c0.0313-0.0195,0.0625-0.04,0.0918-0.0596
				c1.4551-0.9541,3.1016-2.1494,4.8711-3.3799C62.9858,152.1445,63.6304,152.5576,64.2925,152.9287z"/>
			<path fill="#FFFFFF" stroke="#000000" stroke-width="0.8504" stroke-miterlimit="10" d="M68.9897,148.3203
				c4.334,2.8936,8.1758,4.7988,11.9824,5.9443c3.0723,0.9248,7.4668,1.7197,12.125,0.8604
				c1.2617,1.0654,2.5254,2.0664,3.7734,3.002c-9.3203,0.79-18.7891-0.3604-27.6465-3.3916
				c-1.5469-0.5283-3.2012-1.1641-4.748-2.0264c-0.6426-0.3584-1.2656-0.7539-1.8555-1.2002
				c1.8047-1.249,3.7344-2.5254,5.7246-3.623C68.562,148.0342,68.7769,148.1768,68.9897,148.3203z"/>
			<path fill="#FFFFFF" stroke="#000000" stroke-width="0.8504" stroke-miterlimit="10" d="M103.6538,164.5596
				c-2.0645-0.1758-4.7754-0.3213-7.4297,0.1318c-1.8574,0.3184-3.6738,0.9209-5.4297,1.5039
				c-0.6777,0.2256-1.3789,0.459-2.0723,0.6709c-12.1191,3.7217-25.4668,2.3994-36.6211-3.627
				c-0.625-0.3369-1.2598-0.7119-1.6699-1.2588c0.2461-0.5381,0.5273-1.0547,0.8555-1.541
				c1.4648-2.1826,3.6836-3.7139,5.8867-5.1611c0.7227,0.6846,1.4707,1.3838,2.2832,1.9707
				c2.6934,1.9424,6.1074,2.6572,9.1172,3.2871c4.2617,0.8926,8.668,1.8145,13.1074,1.8604
				c3.0313,0.0313,6.1211-0.3486,9.1094-0.7148c3.3555-0.4121,6.791-0.8311,10.1719-0.665c2.4414,1.625,4.7207,2.9727,6.6621,4.04
				C106.4155,164.8486,105.105,164.6846,103.6538,164.5596z"/>
			<path fill="#FFFFFF" stroke="#000000" stroke-width="0.8504" stroke-miterlimit="10" d="M51.9663,163.4863
				c11.2207,6.0635,24.6484,7.3936,36.8398,3.6494c0.6953-0.2139,1.3965-0.4473,2.0762-0.6729
				c1.7461-0.5801,3.5527-1.1797,5.3887-1.4932c2.623-0.4492,5.3105-0.3037,7.3594-0.1289c1.791,0.1523,3.3691,0.3682,4.7969,0.6543
				c3.3008,1.7744,5.4453,2.6602,5.4492,2.6611c0.6895,0.3457,1.4434,0.6631,2.2188,0.9775l0,0
				c6.5977,2.8848,8.916,8.2305,9.7012,12.1855c0.3047,1.6514,0.4551,3.3047,0.3418,4.9473
				c-0.3945-1.6787-0.873-3.3418-1.4414-4.9648c-0.5195-1.4785-1.1445-3.0195-2.1973-4.2617
				c-1.7734-2.0928-4.5273-3.0713-6.9688-3.8252c-3.9531-1.2197-8.0215-2.2129-12.0898-2.9512
				c-2.0762-0.376-4.5293-0.7578-6.9648-0.7334c-3.9141,0.04-7.7578,1.1055-11.4746,2.1348c-1.7207,0.4785-3.5,0.9707-5.2617,1.3555
				c-10.1699,2.2217-21.0352,0.9941-30.4902-3.3389c-0.1895-2.6436,0.1191-5.208,1.0566-7.4102
				C50.7456,162.7939,51.3608,163.1592,51.9663,163.4863z"/>
			<path fill="#FFFFFF" stroke="#000000" stroke-width="0.8504" stroke-miterlimit="10" d="M81.8198,145.5664
				c1.1641,0.4541,2.1777,1.1797,3.1406,1.9834c0.0371,0.0303,0.0742,0.0615,0.1113,0.0918
				c0.0527,0.0449,0.1035,0.0879,0.1563,0.1318c0.334,0.2871,0.6641,0.5791,0.9941,0.8721c0.2344,0.2129,0.457,0.4189,0.668,0.6182
				c-0.5-0.04-1-0.0742-1.4902-0.1074c-0.1719-0.0107-0.3457-0.0225-0.5176-0.0342c-1.5859-0.1074-3.207-0.2451-4.7539-0.6465
				c-2.1289-0.5537-4.1426-1.6426-5.7988-3.1055C76.8784,144.6992,79.4175,144.627,81.8198,145.5664z"/>
			<g>
				<path fill="#FFFFFF" stroke="#000000" stroke-width="0.8504" stroke-miterlimit="10" d="M89.562,151.9375
					c0.2871,0.2754,0.5723,0.5459,0.8594,0.8135c-0.2969-0.2734-0.5742-0.5332-0.7949-0.75
					C89.605,151.9814,89.5835,151.959,89.562,151.9375z"/>
				<path fill="#FFFFFF" stroke="#000000" stroke-width="0.8504" stroke-miterlimit="10" d="M87.2163,149.5752
					c0.0098,0.0107,0.0195,0.0195,0.0293,0.0293c-0.0098-0.0098-0.0215-0.0195-0.0313-0.0293H87.2163z"/>
				<path fill="#FFFFFF" stroke="#000000" stroke-width="0.8504" stroke-miterlimit="10" d="M92.814,154.8848
					c-0.8008-0.6846-1.5996-1.3975-2.3926-2.1338C91.4858,153.7275,92.814,154.8848,92.814,154.8848z"/>
				<path fill="#FFFFFF" stroke="#000000" stroke-width="0.8504" stroke-miterlimit="10" d="M74.021,145.4736
					c1.7129,1.5469,3.8125,2.6963,6.0371,3.2744c1.6738,0.4355,3.4238,0.5635,5.123,0.6758
					c0.0664,0.0049,0.1328,0.0098,0.1992,0.0137c0.6035,0.041,1.2188,0.083,1.834,0.1377c0.0098,0.0098,0.0215,0.0195,0.0313,0.0293
					c0.9746,0.9424,1.709,1.7344,2.3164,2.333c0.0215,0.0215,0.043,0.0439,0.0645,0.0635c0.2207,0.2168,0.498,0.4766,0.7949,0.75
					c0.793,0.7363,1.5918,1.4492,2.3926,2.1338c-4.5156,0.7832-8.7695,0.0107-11.7617-0.8906
					c-3.7539-1.1299-7.5488-3.0059-11.8262-5.8545c-0.2012-0.1338-0.4023-0.2676-0.6055-0.4053
					c0.6641-0.3594,1.332-0.6992,2.0059-1.0088c1.1191-0.5146,2.25-0.9463,3.3789-1.2676
					C74.0112,145.4639,74.0171,145.4678,74.021,145.4736z"/>
			</g>
		</g>
		<path stroke="#000000" stroke-width="0.8504" stroke-miterlimit="10" d="M81.5132,128.0605
			c-0.7852-0.1191-1.502,0.0684-2.1484,0.5586c-0.6484,0.4912-1.0313,1.1289-1.1484,1.9131
			c-0.041,0.0791-0.0586,0.2168-0.0586,0.4121c0,0.707,0.2344,1.335,0.7051,1.8848s1.0801,0.8838,1.8262,1.001
			c0.0391,0,0.5391,0.0693,1.502,0.2061c0.9609,0.1377,2.0996,0.2949,3.4141,0.4707c1.3164,0.1768,2.6504,0.3633,4.0039,0.5596
			c1.3555,0.1973,2.4629,0.3535,3.3262,0.4717c1.1387,0.1963,2.0625,0.7061,2.7676,1.5303
			c0.7461,0.8643,1.1191,1.8457,1.1191,2.9443v3.8857c0,0.3145-0.0977,0.5693-0.2949,0.7656
			c-0.1953,0.1973-0.4512,0.2939-0.7637,0.2939H81.1011c-0.3203,0-0.6191,0.0449-0.9004,0.1309l0,0
			c0.5449,0.1133,1.0859,0.2695,1.6191,0.4775c1.1641,0.4541,2.1777,1.1797,3.1406,1.9834
			c0.0371,0.0303,0.0742,0.0615,0.1113,0.0918c0.0527,0.0449,0.1035,0.0879,0.1563,0.1318c0.334,0.2871,0.6641,0.5791,0.9941,0.8721
			c0.2344,0.2129,0.457,0.4189,0.668,0.6182c0.5898,0.5586,1.0957,1.0684,1.541,1.5244h29.9414
			c0.7852,0,1.4727-0.2949,2.0605-0.8838c0.5508-0.5488,0.8242-1.2363,0.8242-2.0605v-8.0078c0-2.5117-0.6875-4.7881-2.0605-6.8301
			c-1.375-2.041-3.1602-3.5332-5.3574-4.4756c-0.7871-0.3135-1.5703-0.5479-2.3555-0.7061
			c-0.7852-0.1572-1.5898-0.2354-2.4141-0.2354c-2.5527,0-4.8281,0.7061-6.8301,2.1201c-0.4336,0.2744-0.8457,0.5791-1.2363,0.9121
			c-0.3926,0.334-0.7461,0.6768-1.0605,1.0303c-0.1973,0.1973-0.4316,0.3145-0.707,0.3535
			c-0.2734,0.0391-0.5098-0.0186-0.7051-0.1768c-1.4531-1.0986-3.043-1.7666-4.7695-2.002c-0.707-0.1172-1.541-0.2451-2.5039-0.3828
			c-0.9609-0.1377-1.9629-0.2744-3.002-0.4111c-1.041-0.1387-2.041-0.2754-3.0039-0.4131
			c-0.9609-0.1367-1.7578-0.2646-2.3848-0.3828L81.5132,128.0605z M109.0698,133.418c1.2559,0,2.4531,0.3525,3.5918,1.0596
			c1.0605,0.7471,1.8242,1.6875,2.2969,2.8262c0.3516,0.8252,0.5293,1.6699,0.5293,2.5322v4.0625
			c0,0.3145-0.0977,0.5693-0.2949,0.7656c-0.1973,0.1973-0.4512,0.2939-0.7656,0.2939h-10.7754
			c-0.2734,0-0.5098-0.0967-0.707-0.2939c-0.1953-0.1963-0.293-0.4512-0.293-0.7656v-3.8857v-0.0596v-0.0576v-0.0596
			c0-1.334,0.3535-2.5322,1.0605-3.5918c0.7051-1.0977,1.6484-1.8848,2.8262-2.3555
			C107.3999,133.5752,108.2456,133.418,109.0698,133.418z"/>
		<path stroke="#000000" stroke-width="0.8504" stroke-miterlimit="10" d="M81.0425,115.1162c-1.5938,0-2.8867,1.292-2.8867,2.8848
			c0,1.5938,1.293,2.8857,2.8867,2.8857h37.3301c1.5938,0,2.8848-1.292,2.8848-2.8857c0-1.5928-1.291-2.8848-2.8848-2.8848H81.0425z
			"/>
		<path stroke="#000000" stroke-width="0.8504" stroke-miterlimit="10" d="M91.4155,156.7305c0,0.8252-0.2852,1.5215-0.8535,2.0908
			s-1.2461,0.8535-2.0313,0.8535c-0.5898,0-1.1777,0.1182-1.7676,0.3535c-0.9023,0.3926-1.5703,0.9414-2.002,1.6484
			c-0.5098,0.7461-0.7656,1.5889-0.7656,2.5322c0,0.667,0.1191,1.2559,0.3535,1.7666c0.3535,0.8232,0.9043,1.4912,1.6484,2.002
			c0.7852,0.5488,1.6289,0.8242,2.5332,0.8242h22.375c0.9023,0,1.7461-0.2754,2.5313-0.8242
			c0.7461-0.5107,1.2949-1.1787,1.6484-2.002c0.2344-0.5107,0.3535-1.0996,0.3535-1.7666c0-0.9434-0.2559-1.7861-0.7656-2.5322
			c-0.4316-0.707-1.0996-1.2559-2.002-1.6484c-0.5879-0.2354-1.1777-0.3535-1.7656-0.3535c-0.7852,0-1.4629-0.2842-2.0313-0.8535
			c-0.5703-0.5693-0.8555-1.2656-0.8555-2.0908c0-0.7852,0.2852-1.4619,0.8555-2.0313c0.5684-0.5684,1.2461-0.8535,2.0313-0.8535
			c1.0215,0,2.0215,0.1572,3.002,0.4717c0.9824,0.3135,1.9043,0.7461,2.7676,1.2939c1.7285,1.1387,2.9844,2.6709,3.7676,4.5928
			c0.5508,1.2959,0.8262,2.6309,0.8262,4.0049c0,2.041-0.5898,3.9844-1.7676,5.8281c-1.1387,1.6885-2.6699,2.9248-4.5918,3.71
			c-1.2969,0.5498-2.6289,0.8252-4.0039,0.8252h-22.375c-1.375,0-2.709-0.2754-4.0039-0.8252
			c-1.9238-0.7852-3.4551-2.0215-4.5938-3.71c-1.1777-1.8438-1.7656-3.7871-1.7656-5.8281c0-1.374,0.2734-2.709,0.8242-4.0049
			c0.7852-1.9219,2.041-3.4541,3.7676-4.5928c0.8633-0.5479,1.7871-0.9805,2.7676-1.2939c0.9824-0.3145,1.9824-0.4717,3.0039-0.4717
			c0.7852,0,1.4629,0.2852,2.0313,0.8535C91.1304,155.2686,91.4155,155.9453,91.4155,156.7305z"/>
	</g>
	<g>
		<g id="ARC_136_">
			<path fill="none" stroke="#FF0000" stroke-width="0.0028" stroke-miterlimit="10" d="M175.689,24.6924
				c10.332,0,18.709,8.377,18.709,18.709"/>
		</g>
		<g id="LINE_104_">
			
				<line fill="none" stroke="#FF0000" stroke-width="0.0028" stroke-miterlimit="10" x1="194.3979" y1="247.4961" x2="194.3979" y2="43.4014"/>
		</g>
		<g id="ARC_135_">
			<path fill="none" stroke="#FF0000" stroke-width="0.0028" stroke-miterlimit="10" d="M194.3979,247.4961
				c0,10.332-8.377,18.709-18.709,18.709"/>
		</g>
		<g id="LINE_103_">
			
				<line fill="none" stroke="#FF0000" stroke-width="0.0028" stroke-miterlimit="10" x1="33.9565" y1="266.2051" x2="175.689" y2="266.2051"/>
		</g>
		<g id="ARC_134_">
			<path fill="none" stroke="#FF0000" stroke-width="0.0028" stroke-miterlimit="10" d="M33.9565,266.2051
				c-10.332,0-18.709-8.377-18.709-18.709"/>
		</g>
		<g id="LINE_102_">
			
				<line fill="none" stroke="#FF0000" stroke-width="0.0028" stroke-miterlimit="10" x1="15.2476" y1="247.4961" x2="15.2476" y2="43.4014"/>
		</g>
		<g id="ARC_133_">
			<path fill="none" stroke="#FF0000" stroke-width="0.0028" stroke-miterlimit="10" d="M15.2476,43.4014
				c0-10.332,8.377-18.709,18.709-18.709"/>
		</g>
		<g id="LINE_101_">
			
				<line fill="none" stroke="#FF0000" stroke-width="0.0028" stroke-miterlimit="10" x1="33.9565" y1="24.6924" x2="175.689" y2="24.6924"/>
		</g>
		<g id="CIRCLE_55_">
			<path fill="none" stroke="#FF0000" stroke-width="0.0028" stroke-miterlimit="10" d="M175.689,37.7324
				c3.1309,0,5.6699,2.5381,5.6699,5.6689s-2.5391,5.6689-5.6699,5.6689s-5.6699-2.5381-5.6699-5.6689
				S172.5581,37.7324,175.689,37.7324L175.689,37.7324z"/>
		</g>
		<g id="CIRCLE_54_">
			<path fill="none" stroke="#FF0000" stroke-width="0.0028" stroke-miterlimit="10" d="M175.689,241.8262
				c3.1309,0,5.6699,2.5391,5.6699,5.6699s-2.5391,5.6689-5.6699,5.6689s-5.6699-2.5381-5.6699-5.6689
				S172.5581,241.8262,175.689,241.8262L175.689,241.8262z"/>
		</g>
		<g id="CIRCLE_53_">
			<path fill="none" stroke="#FF0000" stroke-width="0.0028" stroke-miterlimit="10" d="M33.9565,37.7324
				c3.1309,0,5.6699,2.5381,5.6699,5.6689s-2.5391,5.6689-5.6699,5.6689s-5.6699-2.5381-5.6699-5.6689
				S30.8257,37.7324,33.9565,37.7324L33.9565,37.7324z"/>
		</g>
		<g id="CIRCLE_52_">
			<path fill="none" stroke="#FF0000" stroke-width="0.0028" stroke-miterlimit="10" d="M33.9565,241.8262
				c3.1309,0,5.6699,2.5391,5.6699,5.6699s-2.5391,5.6689-5.6699,5.6689s-5.6699-2.5381-5.6699-5.6689
				S30.8257,241.8262,33.9565,241.8262L33.9565,241.8262z"/>
		</g>
	</g>
</g>
<text transform="matrix(1 0 0 1 269.6006 317.7051)" font-family="'Roboto-BoldItalic'" font-size="12">plexiglas top</text>
<text transform="matrix(1 0 0 1 60.8311 317.7051)" font-family="'Roboto-BoldItalic'" font-size="12">plexiglas bottom</text>
</svg>
