<?xml version="1.0" encoding="utf-8"?>
<!-- Generator: Adobe Illustrator 16.0.0, SVG Export Plug-In . SVG Version: 6.00 Build 0)  -->
<!DOCTYPE svg PUBLIC "-//W3C//DTD SVG 1.1//EN" "http://www.w3.org/Graphics/SVG/1.1/DTD/svg11.dtd">
<svg version="1.1" id="_x30_" xmlns="http://www.w3.org/2000/svg" xmlns:xlink="http://www.w3.org/1999/xlink" x="0px" y="0px"
	 width="502px" height="130.5498px" viewBox="0 0 502 130.5498" enable-background="new 0 0 502 130.5498" xml:space="preserve">
<g>
	<path fill="none" stroke="#FF0000" stroke-width="0.0028" stroke-miterlimit="10" d="M38.4009,78.1733
		c-3.209,0-5.8105-2.6016-5.8105-5.8115c0-3.209,2.6016-5.8115,5.8105-5.8115c3.21,0,5.8115,2.6025,5.8115,5.8115
		C44.2124,75.5718,41.6108,78.1733,38.4009,78.1733L38.4009,78.1733z"/>
	<path fill="none" stroke="#FF0000" stroke-width="0.0028" stroke-miterlimit="10" d="M463.5981,78.1733
		c-3.209,0-5.8105-2.6016-5.8105-5.8115c0-3.209,2.6016-5.8105,5.8105-5.8105s5.8115,2.6016,5.8115,5.8105
		C469.4097,75.5718,466.8071,78.1733,463.5981,78.1733L463.5981,78.1733z"/>
	<path fill="none" stroke="#FF0000" stroke-width="0.0028" stroke-miterlimit="10" d="M307.6929,70.1489
		c-2.5049,0-4.5352-2.0303-4.5352-4.5361c0-2.5039,2.0303-4.5352,4.5352-4.5352s4.5352,2.0313,4.5352,4.5352
		C312.228,68.1187,310.1978,70.1489,307.6929,70.1489L307.6929,70.1489z"/>
	<path fill="none" stroke="#FF0000" stroke-width="0.0028" stroke-miterlimit="10" d="M194.3071,98.1577
		c-2.5049,0-4.5352-2.0313-4.5352-4.5361s2.0303-4.5352,4.5352-4.5352s4.5352,2.0303,4.5352,4.5352
		S196.812,98.1577,194.3071,98.1577L194.3071,98.1577z"/>
	<path fill="none" stroke="#FF0000" stroke-width="0.0028" stroke-miterlimit="10" d="M307.6929,98.1577
		c-2.5049,0-4.5352-2.0313-4.5352-4.5361s2.0303-4.5352,4.5352-4.5352s4.5352,2.0303,4.5352,4.5352
		S310.1978,98.1577,307.6929,98.1577L307.6929,98.1577z"/>
	<path fill="none" stroke="#FF0000" stroke-width="0.0028" stroke-miterlimit="10" d="M194.3071,70.1489
		c-2.5049,0-4.5352-2.0303-4.5352-4.5361c0-2.5039,2.0303-4.5352,4.5352-4.5352s4.5352,2.0313,4.5352,4.5352
		C198.8423,68.1187,196.812,70.1489,194.3071,70.1489L194.3071,70.1489z"/>
	<path fill="none" stroke="#FF0000" stroke-width="0.0028" stroke-miterlimit="10" d="M472.1021,107.7944H29.897
		c-7.8271,0-14.1729-6.3457-14.1729-14.1729V36.9292c0-7.8281,6.3457-14.1738,14.1729-14.1738l442.2051,0.001
		c7.8281,0,14.1738,6.3447,14.1738,14.1729v56.6924C486.2759,101.4487,479.9302,107.7944,472.1021,107.7944z"/>
	<g>
		<g>
			<path fill="#FFFFFF" stroke="#000000" stroke-width="0.3296" stroke-miterlimit="10" d="M91.4136,54.9106
				c0.2764,0.8301,0.666,1.6309,1.042,2.4063c0.4556,0.9365,0.9268,1.9063,1.1982,2.9248c0.3081,1.1631,0.4473,2.0928,0.4351,2.9287
				h0.0161c-0.2993,0.5039-0.5552,1.0449-0.8486,1.5566c0.0308-1.9336-0.8867-3.6807-1.7793-5.3691
				c-0.2646-0.5039-0.54-1.0264-0.7856-1.5449c-1.4521-3.168-1.5562-6.4883-0.29-9.1162c0.5278,0.0361,1.0557,0.0664,1.583,0.0996
				C90.979,51.0474,90.791,53.0503,91.4136,54.9106z"/>
			<path fill="#FFFFFF" stroke="#000000" stroke-width="0.3296" stroke-miterlimit="10" d="M96.1548,53.5034
				c0.104,0.2617,0.2217,0.5215,0.335,0.7725c0.4189,0.9258,0.8154,1.7998,0.6299,2.8262
				c-0.1191,0.6514-0.2988,1.2871-0.4746,1.9023c-0.1675,0.5918-0.3384,1.2031-0.4619,1.8408
				c-0.2041,0.1973-0.4126,0.3916-0.6172,0.5879c0.0532-0.3721,0.1152-0.748,0.1821-1.1387c0.314-1.8467,0.6377-3.7578-0.0972-5.502
				c-0.6787-1.6973-1.5146-3.792-1.4624-5.8008c0.4985,0.0654,0.9922,0.168,1.4453,0.376
				C95.5161,50.7563,95.7207,52.4185,96.1548,53.5034z"/>
			<path fill="#FFFFFF" stroke="#000000" stroke-width="0.3296" stroke-miterlimit="10" d="M97.6611,58.4165
				c0.3667-1.3721,0.6377-2.8604,0.145-4.4404c-0.1318-0.4229-0.3096-0.8447-0.4829-1.2539
				c-0.3579-0.8506-0.7271-1.7275-0.7041-2.6572c0.5479,0.5498,0.9487,1.2666,1.2593,1.9883
				c0.6299,1.4609,0.9966,3.085,0.7114,4.6504c-0.1929,1.0576-0.6772,2.0313-1.3062,2.8955
				C97.4253,59.2231,97.5513,58.8276,97.6611,58.4165z"/>
			<path fill="#FFFFFF" stroke="#000000" stroke-width="0.3296" stroke-miterlimit="10" d="M86.1973,51.3657
				c-0.2876,0.4414-0.5571,0.8584-0.7949,1.2754c-1.3638,2.4043,0.5708,4.6406,2.1221,6.4385
				c0.1646,0.1904,0.3242,0.375,0.4761,0.5547c0.1582,0.1895,0.3262,0.3828,0.498,0.583c1.5088,1.7549,3.3794,3.9316,3.0684,6.2734
				c-0.4702,0.2412-0.9912,0.3809-1.5278,0.4619c0.0063-0.4775-0.0454-0.915-0.2222-1.3545
				c-0.9741-1.6523-2.1563-2.9961-3.4067-4.4199c-0.7588-0.8643-1.5425-1.7568-2.2832-2.7285
				c-1.4702-1.9277-0.5391-3.9229,0.3613-5.8545c0.2773-0.5928,0.5376-1.1523,0.7349-1.7148
				c0.0996-0.3018,0.1191-0.5215,0.1338-0.7822c0.6978-0.4902,1.4214-0.957,2.2222-1.249c0.0088-0.0039,0.0181-0.0059,0.0249-0.0088
				C87.271,49.7036,86.7271,50.5464,86.1973,51.3657z"/>
			<path fill="#FFFFFF" stroke="#000000" stroke-width="0.3296" stroke-miterlimit="10" d="M85.9277,63.6099
				c-0.522-0.751-1.1895-1.3926-1.835-2.0127c-0.7407-0.7129-1.5073-1.4482-2.0474-2.3477
				c-0.6074-1.0127-0.7974-2.0752-0.5664-3.1621c0.0859-0.4053,0.1982-0.8018,0.3057-1.1865
				c0.231-0.8193,0.4487-1.5957,0.4507-2.4746c0.9741-0.748,1.9482-1.4961,2.9492-2.208c0.0205-0.0137,0.0386-0.0264,0.0566-0.04
				c-0.0137,0.2168-0.0361,0.4121-0.1221,0.667c-0.1948,0.5557-0.4541,1.1133-0.7295,1.7051
				c-0.9141,1.959-1.8584,3.9854-0.3511,5.9648c0.7451,0.9766,1.5303,1.8701,2.29,2.7354c1.2456,1.4189,2.4248,2.7598,3.3906,4.3955
				c0.1699,0.4248,0.2188,0.8506,0.21,1.3232c-0.4043,0.0547-0.8169,0.0801-1.2222,0.0928
				c-0.5586,0.0176-1.126,0.0166-1.6807-0.0527C87.0718,65.9009,86.6875,64.7046,85.9277,63.6099z"/>
			<path fill="#FFFFFF" stroke="#000000" stroke-width="0.3296" stroke-miterlimit="10" d="M80.0371,54.645
				c0.3569-0.6631,0.9072-1.1885,1.4976-1.6689c0.1934-0.1572,0.3916-0.3105,0.5874-0.4619c0.0015-0.001,0.0024-0.001,0.0024-0.001
				c-0.0156,0.8291-0.2231,1.5742-0.4438,2.3584c-0.1089,0.3857-0.2212,0.7842-0.3081,1.1934
				c-0.2378,1.1143-0.043,2.2051,0.5796,3.2412c0.5483,0.9111,1.3184,1.6523,2.064,2.3691
				c0.6431,0.6172,1.3066,1.2549,1.8208,1.9971c0.7456,1.0723,1.1226,2.2412,1.0806,3.3232
				c-0.3872-0.0537-0.7681-0.1436-1.1323-0.2871c-1.3003-0.5146-2.2554-1.6514-2.9858-2.8447
				c-0.9058-1.4795-1.8955-3.0313-2.5991-4.6113C79.5513,57.7983,79.2827,56.0483,80.0371,54.645z"/>
			<path fill="#FFFFFF" stroke="#000000" stroke-width="0.3296" stroke-miterlimit="10" d="M96.7505,59.0337
				c0.1743-0.6172,0.3564-1.2559,0.4756-1.9121c0.1924-1.0605-0.2095-1.9492-0.6367-2.8906c-0.1133-0.25-0.2285-0.5088-0.334-0.7676
				c-0.4233-1.0605-0.626-2.6826-0.5166-4.0469c0.2866,0.1445,0.5449,0.332,0.7759,0.5479c-0.0542,0.9902,0.333,1.9092,0.709,2.7998
				c0.1724,0.4063,0.3491,0.8271,0.478,1.2432c0.4849,1.5557,0.2163,3.0244-0.147,4.3809c-0.1431,0.542-0.3164,1.0537-0.5142,1.5313
				c-0.0024,0.0039-0.0049,0.0068-0.0068,0.0107c-0.2212,0.2764-0.4624,0.5322-0.7114,0.7793
				C96.4424,60.1313,96.5962,59.5757,96.7505,59.0337z"/>
			<path fill="#FFFFFF" stroke="#000000" stroke-width="0.3296" stroke-miterlimit="10" d="M89.8511,59.6909
				c-0.623-0.832-1.2666-1.6934-1.8237-2.6084c-0.6909-1.1504-0.9648-2.4453-0.8379-3.958
				c0.2197-1.6563,1.3228-3.1768,2.3965-4.4912c0.2266,0.0166,0.4575,0.0371,0.6997,0.0547
				c-1.2617,2.6514-1.1528,5.9893,0.3057,9.1719c0.2471,0.5215,0.5234,1.0439,0.7905,1.5488
				c0.9004,1.708,1.8315,3.4746,1.7646,5.4248c0,0.0264-0.002,0.0557-0.0044,0.0869c-0.0703,0.1143-0.1426,0.2275-0.2188,0.3369
				l-0.0054-0.0244C92.3979,63.0942,91.1611,61.4409,89.8511,59.6909z"/>
			<path fill="#FFFFFF" stroke="#000000" stroke-width="0.3296" stroke-miterlimit="10" d="M85.4971,52.6948
				c0.2358-0.4141,0.5054-0.8301,0.7905-1.2705c0.5508-0.8486,1.1157-1.7246,1.4497-2.6299
				c0.6006-0.1914,1.145-0.2021,1.7148-0.1689c-1.0669,1.3115-2.1509,2.8271-2.3716,4.4873
				c-0.1289,1.5391,0.1509,2.8555,0.854,4.0264c0.5596,0.9199,1.2051,1.7832,1.8301,2.6172
				c1.3027,1.7412,2.5327,3.3848,3.0469,5.502l0.0249,0.1211c-0.2119,0.2871-0.4512,0.5508-0.7388,0.7754
				c-0.1313,0.1016-0.2695,0.1924-0.4121,0.2715c0.2671-2.3594-1.5967-4.5283-3.1045-6.2803
				c-0.1719-0.1992-0.3384-0.3926-0.4971-0.582c-0.1519-0.1797-0.3125-0.3662-0.4756-0.5547
				C86.0771,57.2368,84.1724,55.0317,85.4971,52.6948z"/>
			<g>
				<path fill="#FFFFFF" stroke="#000000" stroke-width="0.3296" stroke-miterlimit="10" d="M92.1001,48.8052
					c0.2505,0.0156,0.4995,0.0322,0.75,0.0518c-0.458,2.6367,0.4663,5.1611,1.3701,7.3086
					c0.6299,1.6777,0.7202,4.3887,0.2651,6.4336c-0.0771,0.1025-0.1519,0.207-0.2231,0.3164
					c-0.0215,0.0342-0.0444,0.0693-0.0659,0.1045c-0.0044-0.8066-0.1436-1.7041-0.437-2.8057
					c-0.2739-1.0293-0.7461-2.0039-1.2041-2.9443c-0.376-0.7715-0.7632-1.5703-1.0386-2.3945
					C90.9009,53.0337,91.0923,51.0425,92.1001,48.8052z"/>
			</g>
			<path fill="#FFFFFF" stroke="#000000" stroke-width="0.3296" stroke-miterlimit="10" d="M93.7334,48.937
				c0.1152,0.0127,0.231,0.0264,0.3452,0.041c-0.0557,2.0342,0.7871,4.1455,1.4712,5.8555
				c0.7227,1.7168,0.4009,3.6104,0.0908,5.4434c-0.0713,0.4219-0.144,0.8535-0.2041,1.2783
				c-0.2808,0.2715-0.5527,0.5518-0.8018,0.8555c0.4077-2.0381,0.3013-4.6465-0.3125-6.2861
				c-0.9019-2.1367-1.8223-4.6348-1.3657-7.2461l0,0c0-0.0049,0.001-0.0088,0.002-0.0137
				C93.2168,48.8862,93.4751,48.9087,93.7334,48.937z"/>
		</g>
		<g>
			<path fill="#FFFFFF" stroke="#000000" stroke-width="0.3296" stroke-miterlimit="10" d="M70.2144,46.7466
				c-0.2061-0.0889-0.4209-0.1592-0.6294-0.2285c-0.2676-0.0869-0.5439-0.1777-0.7954-0.3066
				c-0.6646-0.3398-1.0552-1.2168-1.1797-2.1074c0.123-0.1191,0.2559-0.2607,0.396-0.3955c0.1812,0.3359,0.3853,0.665,0.6479,0.9512
				c0.4395,0.4766,0.9922,0.7441,1.5234,0.7373c0.1392-0.0039,0.2808-0.0234,0.418-0.0439
				c0.2627-0.0391,0.5098-0.0762,0.7427,0.0088c0.1045,0.0381,0.1973,0.0986,0.2764,0.1748
				c-0.0181,0.2246-0.0654,0.4512-0.1333,0.6631c-0.1191,0.3789-0.2617,0.7725-0.4263,1.1602
				C70.8101,47.0444,70.4502,46.8491,70.2144,46.7466z"/>
			<path fill="#FFFFFF" stroke="#000000" stroke-width="0.3296" stroke-miterlimit="10" d="M71.3745,45.2603
				c-0.2583-0.0957-0.5313-0.0547-0.7954-0.0166c-0.1333,0.0205-0.2715,0.041-0.4028,0.043c-0.0093,0-0.0161,0-0.0254,0
				c-0.4893,0-1.0044-0.2549-1.4165-0.7021c-0.2617-0.2832-0.4644-0.6143-0.647-0.9541c0.168-0.1533,0.3467-0.2871,0.5327-0.3457
				c0.4731-0.1504,0.9736,0.1582,1.4199,0.2822c0.4736,0.1299,0.9517,0.3135,1.2607,0.7129c0.2456,0.3184,0.334,0.7178,0.3203,1.124
				C71.5488,45.3433,71.4673,45.2935,71.3745,45.2603z"/>
			<path fill="#FFFFFF" stroke="#000000" stroke-width="0.3296" stroke-miterlimit="10" d="M68.5952,47.3257
				c-0.1948-0.126-0.3965-0.2539-0.5879-0.3848c-0.3062-0.209-0.6152-0.4463-0.8052-0.7686
				c-0.1724-0.29-0.2402-0.6348-0.3037-0.9688c-0.0215-0.1084-0.042-0.2168-0.0659-0.3232
				c0.2163-0.2412,0.4497-0.4678,0.6821-0.6855c0.1401,0.8965,0.5469,1.7666,1.2251,2.1123
				c0.2607,0.1338,0.5391,0.2256,0.811,0.3154c0.2061,0.0664,0.4189,0.1367,0.6196,0.2236c0.2368,0.1035,0.606,0.3047,0.8359,0.6299
				c-0.1846,0.4248-0.3965,0.8359-0.6343,1.2021c-0.0103,0.0146-0.0195,0.0273-0.0283,0.042
				C69.877,48.147,69.228,47.73,68.5952,47.3257z"/>
			<path fill="#FFFFFF" stroke="#000000" stroke-width="0.3296" stroke-miterlimit="10" d="M69.3335,49.5806
				c-0.1519-0.3076-0.3105-0.5273-0.4971-0.6924c-0.21-0.1816-0.4668-0.2998-0.7148-0.4131
				c-0.0659-0.0303-0.1313-0.0605-0.1973-0.0928c-0.8311-0.3994-1.5493-1.0381-2.0542-1.8096
				c0.0068-0.0254,0.0088-0.0479,0.0156-0.0713c0.1484-0.5752,0.4712-1.0713,0.8564-1.5176
				c0.0156,0.0801,0.0337,0.1592,0.0488,0.2412c0.0664,0.3428,0.1348,0.6963,0.3159,1.0039
				c0.2017,0.3389,0.5229,0.5859,0.8389,0.8018c0.1914,0.1318,0.3955,0.2607,0.5903,0.3857
				c0.6343,0.4063,1.2856,0.8242,1.7417,1.3965c-0.2646,0.3721-0.5708,0.6611-0.9106,0.8496
				C69.356,49.6353,69.3457,49.6079,69.3335,49.5806z"/>
			<path fill="#FFFFFF" stroke="#000000" stroke-width="0.3296" stroke-miterlimit="10" d="M67.877,48.481
				c0.0659,0.0313,0.1323,0.0635,0.1992,0.0928c0.2402,0.1113,0.4893,0.2246,0.6885,0.3975
				c0.1758,0.1543,0.3252,0.3623,0.4702,0.6582c0.0127,0.0264,0.0239,0.0547,0.0361,0.0811
				c-0.6216,0.3027-1.3374,0.2744-2.085-0.1885c-0.0703-0.0449-0.1416-0.0898-0.2104-0.1387
				c-0.2788-0.1934-0.5371-0.4189-0.7422-0.6963c-0.3882-0.5234-0.5288-1.2285-0.394-1.9619
				C66.3501,47.4722,67.0615,48.0874,67.877,48.481z"/>
		</g>
		<g>
			<path fill="#FFFFFF" stroke="#000000" stroke-width="0.3296" stroke-miterlimit="10" d="M71.9814,62.9585
				c-0.2993,0.6572-0.6353,1.3418-1.1621,1.874c-0.5132,0.5186-1.2324,0.8848-2.1372,1.0879
				c-0.855,0.1914-1.9355,0.2412-2.7441,0.1318c0.3853-1.0029,0.7578-2.0107,1.1826-2.999c0.0498,0.0039,0.0981,0.0068,0.147,0.0098
				c1.4634,0.082,2.6401-0.335,3.4985-1.2402c0.2275-0.2393,0.4482-0.5098,0.6831-0.7969c0.541-0.6592,1.0981-1.3369,1.7871-1.7236
				c0.5527-0.0107,1.1089,0.0137,1.6558,0.084C73.4131,60.1499,72.5635,61.6821,71.9814,62.9585z"/>
			<path fill="#FFFFFF" stroke="#000000" stroke-width="0.3296" stroke-miterlimit="10" d="M71.3652,60.9575
				c-0.2334,0.2842-0.4541,0.5527-0.6797,0.79c-0.854,0.9023-2.0352,1.3057-3.5186,1.1982
				c0.0034-0.0059,0.0054-0.0117,0.0078-0.0156c0.2153-0.4951,0.4438-0.9922,0.7383-1.4414
				c0.0034,0.0166,0.0068,0.0342,0.0161,0.0518c0.0947,0.1797,0.4209,0.2354,0.6274,0.2471
				c0.0498,0.0029,0.0928,0.0029,0.1245,0.002c0.4663-0.0195,0.9194-0.1641,1.3091-0.4199
				c0.4189-0.2744,0.7021-0.6797,0.9751-1.0713c0.2163-0.3086,0.4385-0.624,0.7261-0.8721c0.147-0.0215,0.2969-0.04,0.4438-0.0547
				c0.29-0.0293,0.5835-0.0498,0.8779-0.0615C72.3843,59.7144,71.8682,60.3442,71.3652,60.9575z"/>
			<path fill="#FFFFFF" stroke="#000000" stroke-width="0.3296" stroke-miterlimit="10" d="M66.8032,70.021
				c2.5972-0.3184,5.5405-0.6787,6.1523-2.7305c0.1426-0.4307,0.2715-0.9199,0.4097-1.4375c0.4531-1.7188,0.9683-3.668,2.29-4.666
				c0.5776-0.4678,1.2378-0.7539,1.8984-1.001c0.0181,0.0098,0.0361,0.0166,0.0542,0.0273
				c0.5864,0.3076,1.1191,0.6982,1.6016,1.1445c-0.8188,0.3203-1.6265,0.8281-2.4048,1.5137l-0.0869,0.0752
				c-0.5596,0.4922-1.0884,0.9561-1.479,1.5938c-0.3877,0.6289-0.6753,1.3682-0.8823,2.2617
				c-0.1191,0.5127-0.2051,1.042-0.29,1.5527c-0.1123,0.6777-0.2266,1.3779-0.418,2.0479c-0.2739,0.9561-0.8379,2.248-1.9795,2.9736
				c-0.5327,0.3398-1.2007,0.5635-2.1021,0.7051c-0.2935,0.0449-0.5938,0.0801-0.8838,0.1143
				c-0.4526,0.0527-0.9194,0.1084-1.3726,0.2021c-0.4233,0.0898-0.7925,0.2021-1.1118,0.3408
				c-0.2065-0.584-0.4067-1.168-0.5981-1.7559c-0.2866-0.8838-0.5527-1.7832-0.6567-2.7041
				C65.5142,70.1782,66.1465,70.1011,66.8032,70.021z"/>
			<path fill="#FFFFFF" stroke="#000000" stroke-width="0.3296" stroke-miterlimit="10" d="M70.876,60.2358
				c-0.2671,0.3838-0.5435,0.7803-0.9448,1.043c-0.3735,0.2441-0.8071,0.3838-1.2549,0.4023
				c-0.1875,0.0078-0.5718-0.041-0.6499-0.1914c-0.0317-0.0596-0.0112-0.1387,0.061-0.2334l-0.0078-0.0078
				c0.103-0.1387,0.2119-0.2725,0.334-0.3975c0.7998-0.8271,1.9346-1.2109,3.084-1.3955
				C71.2588,59.6909,71.0649,59.9663,70.876,60.2358z"/>
			<path fill="#FFFFFF" stroke="#000000" stroke-width="0.3296" stroke-miterlimit="10" d="M66.4048,66.2075
				c0.7383,0.041,1.5967-0.0225,2.3013-0.1807c0.9263-0.208,1.6636-0.584,2.1904-1.1182c0.5391-0.5449,0.8809-1.2393,1.1846-1.9053
				c0.5923-1.2998,1.4702-2.8682,3.0059-3.5889c0.811,0.1211,1.5991,0.3467,2.333,0.7061c-0.6367,0.2412-1.271,0.5264-1.8325,0.9805
				c-1.3501,1.0205-1.8687,2.9883-2.3286,4.7246c-0.1357,0.5166-0.2651,1.0039-0.4077,1.4316
				c-0.5913,1.9854-3.4971,2.3408-6.0615,2.6553c-0.6567,0.0801-1.2886,0.1582-1.8574,0.2588
				c-0.0112-0.1201-0.02-0.2402-0.0269-0.3604c-0.0024-0.0479-0.0024-0.0957-0.0024-0.1436
				c0.0181-0.3691,0.0542-0.7402,0.1289-1.1221c0.0093-0.0488,0.0205-0.0977,0.0308-0.1465
				c0.1563-0.5918,0.4067-1.1455,0.6533-1.7744c0.0615-0.1553,0.1226-0.3115,0.1812-0.4678
				C66.0581,66.1792,66.2271,66.1978,66.4048,66.2075z"/>
			<path fill="#FFFFFF" stroke="#000000" stroke-width="0.3296" stroke-miterlimit="10" d="M79.1064,70.2104
				c-0.6694-1.0088-1.4282-2.1523-0.4565-3.2002c0.8516-0.917,2.1724-1.3291,3.2822-1.5771c0.2422,0.4844,0.4995,0.96,0.8105,1.4063
				c-0.7417,0.126-1.5073,0.3232-1.856,1.0254c-0.4927,1.2441,0.0215,2.4346,0.5176,3.5879
				c0.2583,0.5977,0.5254,1.2158,0.6455,1.8301c0.145,0.7148,0.2583,1.7412-0.4438,2.4004
				c-0.2153,0.1895-0.4375,0.377-0.6729,0.5762c-1.4521,1.2324-3.0967,2.624-2.9551,4.7393
				c-0.7075,0.1729-1.4189,0.334-2.1304,0.4717c0.1904-1.6211,0.5459-3.2617,1.7422-4.416
				c0.2197-0.2119,0.4595-0.4189,0.6929-0.6182c0.7681-0.6582,1.563-1.3389,1.8188-2.3867
				c0.2764-1.1328-0.0337-2.3857-0.9219-3.7285L79.1064,70.2104z"/>
			<path fill="#FFFFFF" stroke="#000000" stroke-width="0.3296" stroke-miterlimit="10" d="M83.5313,76.6528
				c0.0815-0.1416,0.1631-0.2832,0.2446-0.4287c0.3916-0.7002,0.5762-1.5107,0.5347-2.3457c-0.0137-0.29-0.0522-0.584-0.0898-0.8682
				c-0.0645-0.4932-0.1299-1.0039-0.0732-1.5029c0.0815-0.7041,0.4526-1.3027,1.1382-1.8291
				c0.2637,0.3525,0.4927,0.7314,0.6509,1.1563c0.4893,1.3125,0.2007,2.7773-0.1763,4.1279
				c-0.3115,1.1211-0.6943,2.2529-1.4272,3.1572c-0.5234,0.6465-1.1924,1.1377-1.9331,1.5166
				C82.4868,78.4839,82.9941,77.5923,83.5313,76.6528z"/>
			<path fill="#FFFFFF" stroke="#000000" stroke-width="0.3296" stroke-miterlimit="10" d="M67.3335,74.5063
				c0.4482-0.0947,0.9126-0.1484,1.3613-0.2021c0.292-0.0342,0.5933-0.0703,0.8901-0.1152c0.915-0.1436,1.5967-0.373,2.1426-0.7197
				c1.1689-0.7451,1.7466-2.0625,2.0249-3.0361c0.1938-0.6758,0.3096-1.3809,0.4214-2.0615
				c0.084-0.5078,0.1699-1.0352,0.2876-1.5449c0.2051-0.8818,0.4893-1.6113,0.8701-2.2295c0.3828-0.623,0.9048-1.082,1.4585-1.5684
				l0.0864-0.0762c0.7847-0.6904,1.5991-1.1973,2.4214-1.5107c0.3081,0.292,0.5933,0.6094,0.8594,0.9414
				c-0.0688,0.0283-0.1416,0.0527-0.2119,0.0771c-0.1152,0.0371-0.2241,0.0723-0.3169,0.126
				c-1.7554,1.0742-3.2529,2.7607-4.1113,4.6289c-0.3374,0.9346-0.2334,1.9541-0.1313,2.9395
				c0.0874,0.8545,0.1777,1.7393-0.0337,2.5313c-0.333,1.1416-1.8374,2.4268-3.1646,3.5596
				c-0.6343,0.541-1.2334,1.0537-1.6084,1.4756c-0.8042,0.9043-1.0962,2.0186-1.1553,3.1553
				c-0.2378-0.1611-0.4609-0.3418-0.6655-0.5508c-0.6187-0.6348-1.0151-1.4395-1.3481-2.2705
				c-0.1084-0.2725-0.2104-0.5498-0.3101-0.8242c-0.2925-0.7939-0.582-1.5898-0.8652-2.3887
				C66.5493,74.7056,66.9141,74.5933,67.3335,74.5063z"/>
			<path fill="#FFFFFF" stroke="#000000" stroke-width="0.3296" stroke-miterlimit="10" d="M70.6606,77.7935
				c0.3706-0.416,0.9673-0.9258,1.5981-1.4648c1.3389-1.1436,2.855-2.4385,3.1997-3.6143c0.2148-0.8125,0.1245-1.7061,0.0361-2.5713
				c-0.1011-0.9727-0.2041-1.9795,0.1221-2.8867c0.8496-1.8438,2.3311-3.5146,4.0659-4.5752c0.083-0.0479,0.186-0.082,0.2969-0.1182
				c0.0791-0.0264,0.1655-0.0557,0.249-0.0908c0.1587,0.2031,0.3105,0.4131,0.4556,0.626c0.3032,0.4482,0.5537,0.9238,0.7925,1.4063
				c-1.9907-0.0371-3.0542,0.7324-3.6353,2.6113c-0.5122,1.5381-0.3604,3.4648-0.2266,5.165
				c0.0273,0.3564,0.0542,0.6924,0.0723,1.0107c0.0298,0.4746-0.1719,1.0322-0.6138,1.7002
				c-0.1802,0.2002-0.3667,0.4082-0.5571,0.6162c-1.6514,1.8262-3.3569,3.7139-3.3027,6.2148
				c-1.2979,0.041-2.625-0.1973-3.6831-0.874C69.5801,79.8101,69.8623,78.6929,70.6606,77.7935z"/>
			<path fill="#FFFFFF" stroke="#000000" stroke-width="0.3296" stroke-miterlimit="10" d="M76.5977,75.6812
				c0.189-0.208,0.377-0.416,0.5615-0.624c0.46-0.6953,0.6675-1.2725,0.6377-1.7725c-0.019-0.3193-0.0464-0.6553-0.0737-1.0117
				c-0.1333-1.6904-0.2827-3.6055,0.2222-5.123c0.5688-1.8418,1.6172-2.5859,3.5859-2.5361
				c0.1177,0.2402,0.2329,0.4795,0.3511,0.7188c-1.1216,0.252-2.4478,0.6729-3.3115,1.6035
				c-1.0308,1.1113-0.2134,2.3438,0.4448,3.334l0.0737,0.1123c0.8696,1.3145,1.1753,2.54,0.9058,3.6426
				c-0.2466,1.0137-1.0283,1.6816-1.7822,2.3281c-0.2358,0.2002-0.4771,0.4082-0.7002,0.623
				c-1.2275,1.1846-1.5864,2.8643-1.7778,4.5166c-0.5845,0.1113-1.167,0.207-1.7441,0.2744
				c-0.2197,0.0244-0.4429,0.042-0.6675,0.0518C73.27,79.3599,74.96,77.4917,76.5977,75.6812z"/>
			<path fill="#FFFFFF" stroke="#000000" stroke-width="0.3296" stroke-miterlimit="10" d="M84.0386,71.4956
				c-0.0591,0.5117,0.0088,1.0293,0.0737,1.5273c0.0371,0.2822,0.0757,0.5742,0.0894,0.8613
				c0.0405,0.8135-0.1406,1.6045-0.521,2.2861c-0.0815,0.1455-0.1631,0.2881-0.2437,0.4287
				c-0.5537,0.9668-1.0771,1.8857-1.1494,3.0928c-0.5278,0.2598-1.085,0.4648-1.6514,0.6299
				c0.146-1.0479,0.7637-1.8467,1.418-2.6885c0.3887-0.501,0.7896-1.0176,1.1064-1.6084c0.6558-1.1787,0.271-2.29-0.1348-3.4668
				c-0.0757-0.2197-0.1538-0.4463-0.2251-0.6738c-0.2993-1.3906,0.2817-2.7344,1.4233-3.3916
				c0.3511,0.3525,0.6953,0.709,0.9971,1.0967C84.5107,70.1353,84.1245,70.7603,84.0386,71.4956z"/>
			<path fill="#FFFFFF" stroke="#000000" stroke-width="0.3296" stroke-miterlimit="10" d="M81.0044,76.3433
				c0.2354-0.1992,0.4575-0.3877,0.6738-0.5801c0.7432-0.6982,0.6284-1.7627,0.478-2.502c-0.1211-0.625-0.3896-1.249-0.6514-1.8525
				c-0.4878-1.1318-0.9932-2.3018-0.5186-3.499c0.332-0.6709,1.0703-0.8467,1.8267-0.9717
				c0.0796,0.1104,0.1611,0.2188,0.2471,0.3242c0.333,0.4004,0.71,0.7744,1.085,1.1514c-1.1665,0.6855-1.7578,2.0654-1.4497,3.499
				c0.0728,0.2334,0.1519,0.4609,0.2266,0.6807c0.3984,1.1523,0.7744,2.2422,0.1426,3.3789
				c-0.3125,0.584-0.7109,1.0967-1.0962,1.5938c-0.6729,0.8662-1.3091,1.6875-1.4463,2.7881c-0.144,0.042-0.29,0.082-0.4351,0.1182
				c-0.6577,0.1641-1.3262,0.335-2.001,0.501C77.96,78.9214,79.5752,77.5522,81.0044,76.3433z"/>
		</g>
		<g>
			<path fill="#FFFFFF" stroke="#000000" stroke-width="0.3296" stroke-miterlimit="10" d="M105.9854,48.6108
				c-1.4658,0.8008-3.0229,1.4443-4.6279,1.9102c-0.0156,0.0039-0.0317,0.0078-0.0474,0.0117
				c0.0093-0.0234,0.0181-0.0459,0.0273-0.0684c0.249-0.6426,0.4937-1.2861,0.8345-1.8828c1.436-0.3721,2.7671-1.1582,3.7603-2.2598
				c0.4883,0.123,0.8989,0.4111,1.3057,0.748c0.1426,0.1191,0.2832,0.2422,0.4214,0.3672
				C107.1743,47.9233,106.5742,48.2896,105.9854,48.6108z"/>
			<path fill="#FFFFFF" stroke="#000000" stroke-width="0.3296" stroke-miterlimit="10" d="M108.6016,51.3335
				c-0.6582,0.2754-1.3569,0.4824-2.0308,0.6816c-0.4087,0.1221-0.8325,0.2471-1.2437,0.3867
				c-1.9443,0.6592-3.7793,1.6953-5.3569,3.0166c-0.0239-0.0527-0.0439-0.1074-0.061-0.1631
				c-0.1494-0.4834-0.043-1.0088,0.1323-1.4834c0.1973-0.5342,0.4067-1.0654,0.6187-1.5967
				c3.1655-0.1396,6.2969-1.3379,8.7456-3.3506c0.4731,0.2822,0.9668,0.5352,1.3838,0.8945
				c0.0293,0.0254,0.0566,0.0508,0.084,0.0762C110.3364,50.4106,109.5767,50.9272,108.6016,51.3335z"/>
			<path fill="#FFFFFF" stroke="#000000" stroke-width="0.3296" stroke-miterlimit="10" d="M100.7031,52.064
				c0.1865-0.4678,0.3735-0.9365,0.5571-1.4053c0.043-0.0098,0.085-0.0205,0.1289-0.0332c1.6108-0.4688,3.1748-1.1143,4.6484-1.918
				c0.5977-0.3271,1.207-0.6992,1.7031-1.1973c0.394,0.3594,0.7793,0.7256,1.2173,1.0303c0.1147,0.0781,0.23,0.1523,0.3481,0.2246
				C106.8926,50.7378,103.8174,51.9175,100.7031,52.064z"/>
			<path fill="#FFFFFF" stroke="#000000" stroke-width="0.3296" stroke-miterlimit="10" d="M102.248,48.4478
				c0.0566-0.0928,0.1152-0.1855,0.1787-0.2773c0.4102-0.6016,0.938-1.1328,1.5698-1.4922
				c0.3965-0.2266,0.8394-0.3857,1.2935-0.4131c0.0415-0.0029,0.0835-0.0039,0.1265-0.0039
				c0.1362-0.001,0.2676,0.0107,0.3931,0.0352C104.8594,47.3306,103.6045,48.0767,102.248,48.4478z"/>
			<path fill="#FFFFFF" stroke="#000000" stroke-width="0.3296" stroke-miterlimit="10" d="M105.3623,52.5044
				c0.4087-0.1377,0.8315-0.2637,1.2393-0.3838c0.6772-0.2012,1.3779-0.4082,2.043-0.6865
				c0.9878-0.4121,1.7612-0.9365,2.3091-1.5635c0.502,0.4922,0.8169,1.1074,0.9844,1.7744
				c-0.6797,0.7666-1.6738,1.3867-3.0181,1.8779c-0.5552,0.2041-1.1318,0.377-1.6909,0.5439
				c-0.8564,0.2568-1.7432,0.5234-2.5698,0.9033c-0.7861,0.3643-2.0718,1.1172-2.7656,2.375
				c-0.4077-0.2666-0.7749-0.5957-1.1294-0.9307c-0.2832-0.2676-0.5684-0.5527-0.7432-0.8945
				C101.5908,54.1987,103.4233,53.1626,105.3623,52.5044z"/>
			<path fill="#FFFFFF" stroke="#000000" stroke-width="0.3296" stroke-miterlimit="10" d="M104.7041,55.0698
				c0.8213-0.3779,1.7026-0.6426,2.5566-0.8975c0.5591-0.1689,1.1392-0.3428,1.6963-0.5459
				c1.3276-0.4873,2.3218-1.0977,3.0127-1.8506c0.2017,0.9072,0.144,1.8975-0.0703,2.8027
				c-0.6997,0.4834-1.5605,0.6465-2.4668,0.8174c-0.8765,0.166-1.7847,0.3369-2.5254,0.8311
				c-0.3896,0.2617-0.7134,0.5996-1.0024,0.9609c-0.6196,0.1582-1.1743,0.5244-1.7998,0.6748
				c-0.6714,0.1631-1.3633-0.0264-1.9546-0.3584c-0.0566-0.0322-0.1108-0.0664-0.1655-0.0996
				C102.6621,56.1694,103.9307,55.4272,104.7041,55.0698z"/>
			<path fill="#FFFFFF" stroke="#000000" stroke-width="0.3296" stroke-miterlimit="10" d="M106.9683,56.3179
				c0.7227-0.4824,1.6187-0.6514,2.4849-0.8154c0.8379-0.1572,1.7002-0.3203,2.4092-0.7695
				c-0.0566,0.2168-0.1216,0.4287-0.1929,0.6318c-0.188,0.5303-0.4541,1.0508-0.7007,1.5586
				c-0.3945,0.0068-0.792,0.0283-1.1826,0.1016c-0.582,0.1104-1.0806,0.332-1.4521,0.6426c-0.6807-0.2871-1.3452-0.6279-2.1108-0.54
				c-0.0479,0.0059-0.0977,0.0137-0.145,0.0234C106.3384,56.8354,106.6265,56.5454,106.9683,56.3179z"/>
			<path fill="#FFFFFF" stroke="#000000" stroke-width="0.3296" stroke-miterlimit="10" d="M109.8066,57.1323
				c0.3633-0.0674,0.7358-0.0918,1.1064-0.0986c-0.1846,0.3516-0.4336,0.6807-0.7915,0.8428
				c-0.3931,0.1777-0.854,0.126-1.2617-0.0078c-0.1406-0.0449-0.2764-0.0986-0.4126-0.1543
				C108.7998,57.4351,109.2651,57.2349,109.8066,57.1323z"/>
		</g>
		<path fill="#FFFFFF" stroke="#000000" stroke-width="0.3296" stroke-miterlimit="10" d="M89.3999,75.063
			c-0.0181,0.0205-0.0337,0.04-0.0518,0.0605C89.3647,75.103,89.3818,75.0835,89.3999,75.063z"/>
		<path fill="#FFFFFF" stroke="#000000" stroke-width="0.3296" stroke-miterlimit="10" d="M89.7378,74.6772
			c-0.1133,0.1279-0.2266,0.2559-0.3379,0.3857C89.5156,74.9263,89.6289,74.7983,89.7378,74.6772z"/>
		<path fill="#FFFFFF" stroke="#000000" stroke-width="0.3296" stroke-miterlimit="10" d="M89.3276,75.147
			c0.0068-0.0088,0.0137-0.0156,0.0205-0.0234c-0.0117,0.0146-0.0239,0.0283-0.0366,0.043
			C89.3184,75.1597,89.3232,75.1538,89.3276,75.147z"/>
		<g>
			<path fill="#FFFFFF" stroke="#000000" stroke-width="0.3296" stroke-miterlimit="10" d="M99.2905,77.1675
				c-0.1504-0.6875-0.3408-1.3779-0.5264-2.0459c-0.3975-1.4336-0.8086-2.916-0.8232-4.4189
				c-0.0103-0.9355,0.1367-1.8789,0.2817-2.6787c0.2856-1.5723,0.6685-3.1445,1.1416-4.6738
				c0.2866-0.9307,0.6592-1.9805,1.4473-2.6484c0.4692-0.3965,1.0547-0.6348,1.6177-0.833c0.729-0.2549,1.478-0.4629,2.2334-0.627
				c0.6284,0.0801,1.25,0.2666,1.8628,0.5986c0.4541,0.2471,0.8394,0.5332,1.168,0.8525c-0.4102,0.0596-0.8022,0.0947-1.1802,0.1279
				c-0.7305,0.0645-1.4204,0.126-2.1792,0.3535c-0.6885,0.207-1.4712,0.4736-2.0547,1.0195
				c-0.6973,0.6514-0.9985,1.6133-1.1641,2.2783c-0.2515,1.0088-0.3701,2.0459-0.3535,3.084
				c0.0332,1.9111,0.5278,3.793,1.0083,5.6143c0.3623,1.3799,0.7383,2.8057,0.9106,4.2373
				c0.4517,3.7568-0.478,7.4893-1.6685,10.8252c-0.9526,0.4043-1.9863,0.6758-2.998,0.7627
				C99.6826,85.3237,100.1523,81.1108,99.2905,77.1675z"/>
			<path fill="#FFFFFF" stroke="#000000" stroke-width="0.3296" stroke-miterlimit="10" d="M104.1553,78.271
				c-0.5962-2.583-1.2134-5.2529-1.6367-8.0068c-0.1826-1.0889,0.0034-2.2012,0.1821-3.2764
				c0.9604-2.6855,3.1519-4.8359,5.627-5.541c0.1084,0.1553,0.208,0.3164,0.3008,0.4834c-1.1743,1.3623-3.7803,4.7168-3.6729,7.5293
				c0.0532,1.4033,0.2549,2.8115,0.4487,4.1748c0.2319,1.625,0.4722,3.3066,0.4609,4.9805
				c-0.0059,0.8594-0.0532,1.7344-0.0996,2.5791c-0.0273,0.4902-0.0532,0.9893-0.0728,1.4912
				c-0.1196,0.3301-0.2378,0.6631-0.3599,0.9932C104.9795,81.853,104.563,80.0337,104.1553,78.271z"/>
			<path fill="#FFFFFF" stroke="#000000" stroke-width="0.3296" stroke-miterlimit="10" d="M102.7891,77.395
				c-0.1733-1.4395-0.5503-2.8691-0.9141-4.2529c-0.4766-1.8135-0.9717-3.6895-1.0034-5.5879
				c-0.0166-1.0293,0.1011-2.0566,0.3501-3.0557c0.1621-0.6523,0.4565-1.5938,1.1328-2.2256c0.5659-0.5303,1.334-0.79,2.0103-0.9932
				c0.7485-0.2256,1.4326-0.2861,2.1587-0.3496c0.3994-0.0352,0.814-0.0713,1.249-0.1387l0.0156-0.002
				c0.1733,0.1777,0.3311,0.3662,0.4736,0.5625c-2.4941,0.7266-4.6968,2.8955-5.665,5.6084
				c-0.1836,1.0928-0.3706,2.2148-0.1855,3.3213c0.4233,2.7568,1.0405,5.4297,1.6377,8.0127
				c0.4199,1.8184,0.8516,3.6953,1.2114,5.5762c-0.2832,0.7412-0.6069,1.458-1.0894,2.083
				c-0.6885,0.8896-1.7783,1.666-3.0215,2.2188C102.3271,84.8491,103.2397,81.1362,102.7891,77.395z"/>
			<path fill="#FFFFFF" stroke="#000000" stroke-width="0.3296" stroke-miterlimit="10" d="M110.1611,74.8833
				c-0.2095,0.3037-0.4326,0.6025-0.6538,0.8945c-0.1616-2.4795,0.103-4.9922,0.7705-7.3877
				c0.1743,0.7217,0.3735,1.4375,0.5977,2.1465c0.0386,0.123,0.0781,0.2471,0.1167,0.3721
				C110.4248,72.146,110.1372,73.522,110.1611,74.8833z"/>
			<path fill="#FFFFFF" stroke="#000000" stroke-width="0.3296" stroke-miterlimit="10" d="M105.8745,81.1997
				c0.0449-0.8467,0.0938-1.7217,0.0996-2.585c0.0122-1.6816-0.229-3.3672-0.4609-4.9971
				c-0.1938-1.3594-0.3955-2.7656-0.4478-4.1631c-0.105-2.752,2.4385-6.0488,3.6177-7.4229
				c0.2251,0.4258,0.4033,0.8799,0.5479,1.3525c-0.5806,1.5957-1.1665,3.2969-1.4292,5.0479
				c-0.147,0.9795-0.1948,1.9814-0.2422,2.9512l-0.3853,8.0449c-0.5117,0.9463-0.9761,1.918-1.3589,2.9268c0,0,0,0,0,0.001
				C105.8325,81.9673,105.854,81.5796,105.8745,81.1997z"/>
			<path fill="#FFFFFF" stroke="#000000" stroke-width="0.3296" stroke-miterlimit="10" d="M107.6694,71.3892
				c0.0464-0.9668,0.0938-1.9668,0.2412-2.9404c0.2534-1.6914,0.811-3.3389,1.3726-4.8877
				c0.2222,0.7656,0.3672,1.5762,0.5054,2.3926c-1.1665,3.5742-1.5723,7.3564-1.1982,11.0879
				c-0.0181,0.0273-0.0366,0.0537-0.0522,0.0791c-0.4351,0.6836-0.8516,1.3789-1.2437,2.0879L107.6694,71.3892z"/>
			<path fill="#FFFFFF" stroke="#000000" stroke-width="0.3296" stroke-miterlimit="10" d="M108.6851,76.8979
				c-0.3418-3.6045,0.0435-7.2529,1.1416-10.7109c0.1133,0.666,0.2471,1.3271,0.4014,1.9844
				c-0.7227,2.5049-1.0034,5.1396-0.8179,7.7354C109.1519,76.2476,108.9014,76.5786,108.6851,76.8979z"/>
			<path fill="#FFFFFF" stroke="#000000" stroke-width="0.3296" stroke-miterlimit="10" d="M111.041,71.0698
				c0.1416,0.4844,0.2471,0.9785,0.1812,1.4746c-0.0972,0.7451-0.4834,1.4775-0.9536,2.1816
				C110.2686,73.4741,110.5347,72.2144,111.041,71.0698z"/>
			<path fill="#FFFFFF" stroke="#000000" stroke-width="0.3296" stroke-miterlimit="10" d="M91.3979,83.1772
				c0.3418-0.6123,0.5933-1.2666,0.8027-1.877c1.1929-3.4854,1.6367-7.2139,1.3081-10.8799
				c0.3242-0.4355,0.6255-0.8652,0.9072-1.2842c-0.0415,1.2617,0.1123,2.5371,0.2651,3.7842
				c0.1416,1.1543,0.2876,2.3477,0.2754,3.5166c-0.0161,1.709-0.3726,3.4121-0.7183,5.0576
				c-0.2412,1.1563-0.5161,2.4668-1.2549,3.4922c-0.2183,0.3018-0.48,0.584-0.7383,0.8564
				c-0.0068-0.0127-0.0146-0.0254-0.0229-0.0371c-0.3691-0.5635-0.8335-1.2012-1.3091-1.8877
				C91.0933,83.6831,91.2529,83.4331,91.3979,83.1772z"/>
			<path fill="#FFFFFF" stroke="#000000" stroke-width="0.3296" stroke-miterlimit="10" d="M89.6108,81.356
				c1.1211-1.6797,1.8594-3.168,2.3037-4.6436c0.3589-1.1904,0.667-2.8936,0.334-4.6992c0.4131-0.4893,0.8008-0.9785,1.1631-1.4619
				c0.3057,3.6113-0.1392,7.2813-1.314,10.7139c-0.2046,0.5986-0.4507,1.2402-0.7856,1.8398
				c-0.1382,0.25-0.2925,0.4912-0.4644,0.7197c-0.4849-0.7002-0.9785-1.4473-1.4048-2.2188
				C89.4995,81.522,89.5562,81.438,89.6108,81.356z"/>
			<path fill="#FFFFFF" stroke="#000000" stroke-width="0.3296" stroke-miterlimit="10" d="M95.9053,67.9214
				c-0.0679,0.8008-0.1245,1.8516,0.0503,2.8799c0.1245,0.7188,0.3574,1.4238,0.583,2.1045
				c0.0874,0.2627,0.1777,0.5342,0.2593,0.8027c1.4429,4.6973,0.9312,9.8701-1.4043,14.1924
				c-0.1313,0.2422-0.2764,0.4893-0.4883,0.6475c-0.2095-0.0947-0.4087-0.2051-0.5967-0.332c-0.8472-0.5674-1.4404-1.4268-2-2.2803
				c0.2651-0.2813,0.5356-0.5703,0.7632-0.8857c0.752-1.043,1.0293-2.3662,1.2729-3.5322c0.3467-1.6533,0.7046-3.3604,0.7217-5.0811
				c0.0122-1.1748-0.1348-2.3721-0.2778-3.5303c-0.1582-1.2998-0.3213-2.6318-0.2568-3.9424
				c0.6299-0.9453,1.1519-1.8291,1.5664-2.5811C96.0166,66.8511,95.9531,67.3599,95.9053,67.9214z"/>
			<path fill="#FFFFFF" stroke="#000000" stroke-width="0.3296" stroke-miterlimit="10" d="M95.4888,87.9536
				c2.3501-4.3486,2.8652-9.5527,1.4146-14.2773c-0.0825-0.2705-0.1733-0.542-0.2617-0.8047
				c-0.2241-0.6768-0.4565-1.377-0.5776-2.0879c-0.1743-1.0176-0.1177-2.0596-0.0498-2.8535
				c0.0591-0.6943,0.1426-1.3047,0.2539-1.8584c0.686-1.2803,1.0303-2.1104,1.0303-2.1123
				c0.1338-0.2676,0.2573-0.5586,0.3784-0.8594l0,0c1.1191-2.5576,3.1904-3.4561,4.7227-3.7598
				c0.6411-0.1182,1.2822-0.1758,1.9189-0.1328c-0.6514,0.1523-1.2959,0.3389-1.9258,0.5596
				c-0.5728,0.2002-1.1685,0.4424-1.6509,0.8506c-0.811,0.6875-1.1904,1.7549-1.4829,2.7012
				c-0.4722,1.5322-0.8569,3.1084-1.1426,4.6865c-0.147,0.8037-0.2944,1.7539-0.2852,2.6982
				c0.0156,1.5166,0.4277,3.0059,0.8276,4.4463c0.1846,0.668,0.376,1.3574,0.5244,2.04c0.8618,3.9414,0.3862,8.1523-1.2935,11.8164
				c-1.0239,0.0732-2.0181-0.0459-2.8721-0.4092C95.2212,88.4263,95.3618,88.188,95.4888,87.9536z"/>
			<path fill="#FFFFFF" stroke="#000000" stroke-width="0.3296" stroke-miterlimit="10" d="M88.5439,76.3833
				c0.1768-0.4512,0.4575-0.8438,0.7676-1.2168c0.0127-0.0146,0.0249-0.0283,0.0366-0.043c0.0181-0.0205,0.0337-0.04,0.0518-0.0605
				c0.1113-0.1299,0.2246-0.2578,0.3379-0.3857c0.0815-0.0908,0.1616-0.1768,0.2397-0.2588
				c-0.0156,0.1943-0.0293,0.3877-0.043,0.5781c-0.0034,0.0664-0.0078,0.1338-0.0122,0.2002
				c-0.042,0.6152-0.0952,1.2422-0.2505,1.8428c-0.2153,0.8242-0.6362,1.6045-1.2041,2.2471
				C88.2085,78.2993,88.1792,77.3149,88.5439,76.3833z"/>
			<g>
				<path fill="#FFFFFF" stroke="#000000" stroke-width="0.3296" stroke-miterlimit="10" d="M91.0127,73.3833
					c0.1064-0.1123,0.2119-0.2217,0.3149-0.334c-0.1055,0.1152-0.2061,0.2236-0.29,0.3086
					C91.0308,73.3667,91.022,73.3745,91.0127,73.3833z"/>
				<polygon fill="#FFFFFF" stroke="#000000" stroke-width="0.3296" stroke-miterlimit="10" points="90.0977,74.2915 
					90.1089,74.2808 90.0977,74.2935 				"/>
				<path fill="#FFFFFF" stroke="#000000" stroke-width="0.3296" stroke-miterlimit="10" d="M92.1543,72.1235
					c-0.2646,0.3096-0.541,0.6191-0.8267,0.9258C91.7061,72.6372,92.1543,72.1235,92.1543,72.1235z"/>
				<path fill="#FFFFFF" stroke="#000000" stroke-width="0.3296" stroke-miterlimit="10" d="M88.5078,79.4067
					c0.6001-0.665,1.0454-1.4785,1.2695-2.3398c0.1685-0.6494,0.2183-1.3281,0.2617-1.9854
					c0.002-0.0264,0.0044-0.0527,0.0044-0.0781c0.0156-0.2334,0.0327-0.4727,0.0542-0.71c0.0034-0.0039,0.0068-0.0088,0.0112-0.0127
					c0.3647-0.377,0.6729-0.6631,0.9038-0.8975c0.0093-0.0088,0.0181-0.0166,0.0249-0.0254c0.084-0.085,0.1846-0.1934,0.29-0.3086
					c0.2856-0.3066,0.562-0.6162,0.8267-0.9258c0.3037,1.749,0.0049,3.3984-0.3442,4.5576c-0.437,1.4541-1.1641,2.9258-2.2695,4.583
					c-0.0508,0.0781-0.103,0.1563-0.1563,0.2354c-0.1392-0.2578-0.272-0.5166-0.3921-0.7783
					c-0.1992-0.4336-0.3657-0.8721-0.4902-1.3086C88.5044,79.4097,88.5054,79.4077,88.5078,79.4067z"/>
			</g>
		</g>
		<path stroke="#000000" stroke-width="0.3296" stroke-miterlimit="10" d="M81.7598,76.5024
			c-0.0464,0.3037,0.0259,0.582,0.2163,0.833s0.4375,0.3994,0.7417,0.4443c0.0298,0.0166,0.084,0.0234,0.1587,0.0234
			c0.2739,0,0.5186-0.0908,0.7319-0.2734c0.2129-0.1826,0.3418-0.4189,0.3872-0.708c0-0.0156,0.0269-0.209,0.0791-0.582
			c0.0547-0.3721,0.1157-0.8145,0.1836-1.3223c0.0679-0.5107,0.1406-1.0273,0.2163-1.5518c0.0757-0.5254,0.1372-0.9551,0.1821-1.29
			c0.0771-0.4404,0.2744-0.7988,0.5938-1.0732c0.335-0.2881,0.7158-0.4336,1.1416-0.4336h1.5063
			c0.1211,0,0.2197,0.0391,0.2964,0.1143c0.0762,0.0762,0.1133,0.1758,0.1133,0.2969v5.6826c0,0.123,0.0186,0.2402,0.0498,0.3486
			l0,0c0.0454-0.2119,0.1055-0.4209,0.186-0.6279c0.1768-0.4512,0.4575-0.8438,0.7676-1.2168
			c0.0127-0.0146,0.0249-0.0283,0.0366-0.043c0.0181-0.0205,0.0337-0.04,0.0518-0.0605c0.1113-0.1299,0.2246-0.2578,0.3379-0.3857
			c0.0815-0.0908,0.1616-0.1768,0.2397-0.2588c0.2153-0.2285,0.4136-0.4248,0.5903-0.5977V62.2173
			c0-0.3047-0.1143-0.5703-0.3433-0.7979c-0.2129-0.2139-0.478-0.3193-0.7974-0.3193h-3.1045c-0.9727,0-1.856,0.2656-2.6465,0.7979
			s-1.3696,1.2246-1.7354,2.0762c-0.1211,0.3047-0.2119,0.6094-0.2739,0.9131c-0.0601,0.3047-0.0908,0.6162-0.0908,0.9355
			c0,0.9893,0.2744,1.8711,0.8223,2.6465c0.1064,0.1689,0.2246,0.3281,0.3535,0.4795c0.1289,0.1523,0.2627,0.29,0.3984,0.4111
			c0.0771,0.0771,0.1226,0.167,0.1382,0.2734c0.0137,0.1064-0.0078,0.1982-0.0688,0.2734
			c-0.4258,0.5635-0.6851,1.1797-0.7759,1.8496c-0.0454,0.2725-0.0952,0.5967-0.1484,0.9688
			c-0.0532,0.373-0.1064,0.7617-0.1597,1.165c-0.0542,0.4033-0.1064,0.79-0.1597,1.1641c-0.0532,0.3711-0.103,0.6807-0.1484,0.9238
			L81.7598,76.5024z M83.8359,65.8228c0-0.4873,0.1367-0.9502,0.4111-1.3926c0.2886-0.4102,0.6533-0.7061,1.0938-0.8896
			c0.3208-0.1357,0.6479-0.2051,0.9819-0.2051h1.5757c0.1211,0,0.2197,0.0381,0.2964,0.1143
			c0.0762,0.0762,0.1133,0.1748,0.1133,0.2969v4.1758c0,0.1064-0.0371,0.1973-0.1133,0.2744
			c-0.0767,0.0752-0.1753,0.1133-0.2964,0.1133h-1.5063h-0.0239h-0.0215h-0.0239c-0.5176,0-0.9819-0.1377-1.3916-0.4102
			c-0.4258-0.2744-0.7305-0.6396-0.9131-1.0957C83.896,66.4702,83.8359,66.1421,83.8359,65.8228z"/>
		<path stroke="#000000" stroke-width="0.3296" stroke-miterlimit="10" d="M76.7427,76.6851c0,0.6172,0.5005,1.1191,1.1191,1.1191
			c0.6157,0,1.1177-0.502,1.1177-1.1191V62.2173c0-0.6182-0.502-1.1172-1.1177-1.1172c-0.6187,0-1.1191,0.499-1.1191,1.1172V76.6851
			z"/>
		<path stroke="#000000" stroke-width="0.3296" stroke-miterlimit="10" d="M92.8701,72.6646c0.3193,0,0.5903,0.1113,0.811,0.3301
			c0.2197,0.2217,0.3306,0.4844,0.3306,0.7871c0,0.2295,0.0454,0.457,0.1372,0.6855c0.1519,0.3496,0.3647,0.6094,0.6387,0.7764
			c0.2891,0.1982,0.6152,0.2959,0.9819,0.2959c0.2583,0,0.4858-0.0449,0.6841-0.1367c0.3193-0.1367,0.5776-0.3496,0.7759-0.6387
			c0.2129-0.3037,0.3193-0.6309,0.3193-0.9824v-8.6699c0-0.3506-0.1064-0.6777-0.3193-0.9814
			c-0.1982-0.29-0.4565-0.5029-0.7759-0.6387c-0.1982-0.0918-0.4258-0.1367-0.6841-0.1367c-0.3667,0-0.6929,0.0986-0.9819,0.2969
			c-0.2739,0.166-0.4868,0.4258-0.6387,0.7754c-0.0918,0.2275-0.1372,0.4561-0.1372,0.6846c0,0.3027-0.1108,0.5654-0.3306,0.7871
			c-0.2207,0.2207-0.4917,0.3311-0.811,0.3311c-0.3032,0-0.5659-0.1104-0.7856-0.3311c-0.2222-0.2217-0.332-0.4844-0.332-0.7871
			c0-0.3955,0.061-0.7842,0.1821-1.1641c0.1226-0.3799,0.29-0.7383,0.5029-1.0723c0.4409-0.6699,1.0352-1.1563,1.7793-1.4609
			c0.502-0.2129,1.0205-0.3193,1.5527-0.3193c0.7905,0,1.5439,0.2275,2.2583,0.6846c0.6548,0.4414,1.1328,1.0352,1.4385,1.7803
			c0.2129,0.501,0.3193,1.0186,0.3193,1.5518v8.6699c0,0.5342-0.1064,1.0508-0.3193,1.5518
			c-0.3057,0.7471-0.7837,1.3398-1.4385,1.7803c-0.7144,0.458-1.4678,0.6855-2.2583,0.6855c-0.5322,0-1.0508-0.1064-1.5527-0.3193
			c-0.7441-0.3047-1.3384-0.792-1.7793-1.4609c-0.2129-0.334-0.3804-0.6924-0.5029-1.0723
			c-0.1211-0.3809-0.1821-0.7686-0.1821-1.165c0-0.3027,0.1099-0.5654,0.332-0.7871
			C92.3042,72.7759,92.5669,72.6646,92.8701,72.6646z"/>
	</g>
</g>
</svg>
